<?xml version="1.0" encoding="utf-8"?>
<!-- Generator: Adobe Illustrator 17.0.0, SVG Export Plug-In . SVG Version: 6.00 Build 0)  -->
<!DOCTYPE svg PUBLIC "-//W3C//DTD SVG 1.1//EN" "http://www.w3.org/Graphics/SVG/1.1/DTD/svg11.dtd">
<svg version="1.1" id="Layer_1" xmlns="http://www.w3.org/2000/svg" xmlns:xlink="http://www.w3.org/1999/xlink" x="0px" y="0px"
	 width="1280px" height="800px" viewBox="0 0 1280 800" enable-background="new 0 0 1280 800" xml:space="preserve">
<path fill="#00D2A0" stroke="#00D2A0" stroke-width="1.51" d="M181.572-105.816l161.992,5.538l428.518-51.921L181.572-105.816z"/>
<path fill="#00D7A4" stroke="#00D7A4" stroke-width="1.51" d="M-161.796-151.507l343.368,45.69l590.51-46.382L-161.796-151.507z"/>
<path fill="#00C596" stroke="#00C596" stroke-width="1.51" d="M772.082-152.199l116.994,12.461l146.762,12.461L772.082-152.199z"/>
<path fill="#00C293" stroke="#00C293" stroke-width="1.51" d="M772.082-152.199l263.757,24.922l137.763,10.384L772.082-152.199z"/>
<path fill="#009A75" stroke="#009A75" stroke-width="1.51" d="M874.539,928.442L448.79,951.979l733.811-29.768L874.539,928.442z"/>
<path fill="#009571" stroke="#009571" stroke-width="1.51" d="M999.149,910.443l-124.609,17.999l308.062-6.231L999.149,910.443z"/>
<path fill="#00BE91" stroke="#00BE91" stroke-width="1.51" d="M772.082-152.199l401.519,35.306l156.454,13.153L772.082-152.199z"/>
<path fill="#008D6B" stroke="#008D6B" stroke-width="1.51" d="M1278.828,902.136l-96.226,20.076l233.297-16.615L1278.828,902.136z"
	/>
<path fill="#00A079" stroke="#00A079" stroke-width="1.51" d="M1389.592,358.7l-79.612,21.461l119.071,132.225L1389.592,358.7z"/>
<path fill="#009E78" stroke="#009E78" stroke-width="1.51" d="M1309.98,380.16l17.307,147.455l101.764-15.23L1309.98,380.16z"/>
<path fill="#009370" stroke="#009370" stroke-width="1.51" d="M1393.745,626.61l-60.228,85.842l103.841,24.922L1393.745,626.61z"/>
<path fill="#009671" stroke="#009671" stroke-width="1.51" d="M1429.051,512.385l-35.306,114.225l43.613,110.764L1429.051,512.385z"
	/>
<path fill="#00A77F" stroke="#00A77F" stroke-width="1.51" d="M1390.976,165.555l-83.073,93.457l136.378,69.92L1390.976,165.555z"/>
<path fill="#00A47D" stroke="#00A47D" stroke-width="1.51" d="M1307.903,259.012l81.688,99.688l54.69-29.768L1307.903,259.012z"/>
<path fill="#00A880" stroke="#00A880" stroke-width="1.51" d="M1418.667,67.945l-27.691,97.611l53.305,163.377L1418.667,67.945z"/>
<path fill="#009F79" stroke="#009F79" stroke-width="1.51" d="M1389.592,358.7l39.46,153.685l15.23-183.453L1389.592,358.7z"/>
<path fill="#00AF85" stroke="#00AF85" stroke-width="1.51" d="M1382.669,0.794l35.998,67.151l29.768-153.685L1382.669,0.794z"/>
<path fill="#00B288" stroke="#00B288" stroke-width="1.51" d="M1330.056-103.74l52.613,104.534l65.766-86.534L1330.056-103.74z"/>
<path fill="#00AB81" stroke="#00AB81" stroke-width="1.51" d="M1418.667,67.945l25.614,260.988l4.154-414.673L1418.667,67.945z"/>
<path fill="#00906D" stroke="#00906D" stroke-width="1.51" d="M1437.359,737.374l-99.688,55.382l113.533-13.845L1437.359,737.374z"
	/>
<path fill="#008D6B" stroke="#008D6B" stroke-width="1.51" d="M1337.671,792.756l78.227,112.841l35.306-126.686L1337.671,792.756z"
	/>
<path fill="#009974" stroke="#009974" stroke-width="1.51" d="M1444.281,328.932l-15.23,183.453l22.153,266.526L1444.281,328.932z"
	/>
<path fill="#00936F" stroke="#00936F" stroke-width="1.51" d="M1429.051,512.385l8.307,224.989l13.845,41.536L1429.051,512.385z"/>
<path fill="#009A75" stroke="#009A75" stroke-width="1.51" d="M1327.287,527.615l66.458,98.995l35.306-114.225L1327.287,527.615z"/>
<path fill="#00AC83" stroke="#00AC83" stroke-width="1.51" d="M1332.825,121.942l58.151,43.613l27.691-97.611L1332.825,121.942z"/>
<path fill="#00926F" stroke="#00926F" stroke-width="1.51" d="M1333.517,712.452l4.154,80.304l99.688-55.382L1333.517,712.452z"/>
<path fill="#00AA81" stroke="#00AA81" stroke-width="1.51" d="M1300.98,192.554l6.923,66.458l83.073-93.457L1300.98,192.554z"/>
<path fill="#008D6B" stroke="#008D6B" stroke-width="1.51" d="M1337.671,792.756l-58.843,109.379l137.07,3.461L1337.671,792.756z"/>
<path fill="#00AE84" stroke="#00AE84" stroke-width="1.51" d="M1382.669,0.794l-49.844,121.148l85.842-53.997L1382.669,0.794z"/>
<path fill="#00B086" stroke="#00B086" stroke-width="1.51" d="M1293.365-1.283l39.46,123.225l49.844-121.148L1293.365-1.283z"/>
<path fill="#00B388" stroke="#00B388" stroke-width="1.51" d="M1330.056-103.74L1293.365-1.283l89.303,2.077L1330.056-103.74z"/>
<path fill="#00A57D" stroke="#00A57D" stroke-width="1.51" d="M1307.903,259.012l2.077,121.148l79.612-21.461L1307.903,259.012z"/>
<path fill="#009873" stroke="#009873" stroke-width="1.51" d="M1294.75,570.536l38.767,141.916l60.228-85.842L1294.75,570.536z"/>
<path fill="#009A75" stroke="#009A75" stroke-width="1.51" d="M1327.287,527.615l-32.537,42.921l98.995,56.074L1327.287,527.615z"/>
<path fill="#00AB83" stroke="#00AB83" stroke-width="1.51" d="M1332.825,121.942l-31.845,70.612l89.996-26.999L1332.825,121.942z"/>
<path fill="#009C76" stroke="#009C76" stroke-width="1.51" d="M1197.139,602.381l-3.461,98.303l101.072-130.148L1197.139,602.381z"
	/>
<path fill="#00A77F" stroke="#00A77F" stroke-width="1.51" d="M1307.903,259.012l-105.226,46.382l107.303,74.766L1307.903,259.012z"
	/>
<path fill="#00A27B" stroke="#00A27B" stroke-width="1.51" d="M1309.98,380.16l-114.918,51.921l132.224,95.534L1309.98,380.16z"/>
<path fill="#00B58A" stroke="#00B58A" stroke-width="1.51" d="M1214.446-36.589l78.919,35.306l36.691-102.457L1214.446-36.589z"/>
<path fill="#00B187" stroke="#00B187" stroke-width="1.51" d="M1293.365-1.283l-89.996,49.152l129.455,74.073L1293.365-1.283z"/>
<path fill="#009874" stroke="#009874" stroke-width="1.51" d="M1294.75,570.536l-101.072,130.148l139.84,11.769L1294.75,570.536z"/>
<path fill="#00916E" stroke="#00916E" stroke-width="1.51" d="M1179.832,816.986l98.995,85.15l58.843-109.379L1179.832,816.986z"/>
<path fill="#009571" stroke="#009571" stroke-width="1.51" d="M1333.517,712.452l-139.84-11.769l143.993,92.073L1333.517,712.452z"
	/>
<path fill="#009471" stroke="#009471" stroke-width="1.51" d="M1193.678,700.684l-13.845,116.302l157.839-24.23L1193.678,700.684z"
	/>
<path fill="#00A17A" stroke="#00A17A" stroke-width="1.51" d="M1195.062,432.081l-16.615,93.457l148.839,2.077L1195.062,432.081z"/>
<path fill="#00AE84" stroke="#00AE84" stroke-width="1.51" d="M1195.062,172.478l105.918,20.076l31.845-70.612L1195.062,172.478z"/>
<path fill="#00B186" stroke="#00B186" stroke-width="1.51" d="M1203.37,47.869l-8.307,124.609l137.763-50.536L1203.37,47.869z"/>
<path fill="#009E78" stroke="#009E78" stroke-width="1.51" d="M1178.448,525.538l116.302,44.998l32.537-42.921L1178.448,525.538z"/>
<path fill="#00B88C" stroke="#00B88C" stroke-width="1.51" d="M1173.602-116.893l40.844,80.304l115.61-67.151L1173.602-116.893z"/>
<path fill="#00AC83" stroke="#00AC83" stroke-width="1.51" d="M1300.98,192.554l-105.918-20.076l112.841,86.534L1300.98,192.554z"/>
<path fill="#00AC82" stroke="#00AC82" stroke-width="1.51" d="M1195.062,172.478l7.615,132.917l105.226-46.382L1195.062,172.478z"/>
<path fill="#00A67E" stroke="#00A67E" stroke-width="1.51" d="M1202.677,305.395l-7.615,126.686l114.918-51.921L1202.677,305.395z"
	/>
<path fill="#009E78" stroke="#009E78" stroke-width="1.51" d="M1178.448,525.538l18.691,76.843l97.611-31.845L1178.448,525.538z"/>
<path fill="#00B48A" stroke="#00B48A" stroke-width="1.51" d="M1214.446-36.589l-11.076,84.458l89.996-49.152L1214.446-36.589z"/>
<path fill="#00916E" stroke="#00916E" stroke-width="1.51" d="M1179.832,816.986l2.769,105.226l96.226-20.076L1179.832,816.986z"/>
<path fill="#009F79" stroke="#009F79" stroke-width="1.51" d="M610.782,904.213L448.79,951.979l425.749-23.537L610.782,904.213z"/>
<path fill="#009370" stroke="#009370" stroke-width="1.51" d="M1071.145,884.137l-71.997,26.306l183.453,11.769L1071.145,884.137z"
	/>
<path fill="#009773" stroke="#009773" stroke-width="1.51" d="M1138.988,784.449l40.844,32.537l13.845-116.302L1138.988,784.449z"/>
<path fill="#00B388" stroke="#00B388" stroke-width="1.51" d="M1080.837,68.637l55.382,125.994l58.843-22.153L1080.837,68.637z"/>
<path fill="#00A880" stroke="#00A880" stroke-width="1.51" d="M1137.604,314.394l-22.153,97.611l79.612,20.076L1137.604,314.394z"/>
<path fill="#00A47C" stroke="#00A47C" stroke-width="1.51" d="M1119.604,504.078l58.843,21.461l16.615-93.457L1119.604,504.078z"/>
<path fill="#009D77" stroke="#009D77" stroke-width="1.51" d="M1082.914,619.688l110.764,80.996l3.461-98.303L1082.914,619.688z"/>
<path fill="#00AE85" stroke="#00AE85" stroke-width="1.51" d="M1195.062,172.478l-58.843,22.153l66.458,110.764L1195.062,172.478z"
	/>
<path fill="#00AD83" stroke="#00AD83" stroke-width="1.51" d="M1136.219,194.631l1.385,119.764l65.074-9L1136.219,194.631z"/>
<path fill="#00A980" stroke="#00A980" stroke-width="1.51" d="M1137.604,314.394l57.459,117.687l7.615-126.686L1137.604,314.394z"/>
<path fill="#00B489" stroke="#00B489" stroke-width="1.51" d="M1080.837,68.637l114.225,103.841l8.307-124.609L1080.837,68.637z"/>
<path fill="#00BA8E" stroke="#00BA8E" stroke-width="1.51" d="M1173.602-116.893l-56.074,23.537l96.918,56.767L1173.602-116.893z"/>
<path fill="#00B98D" stroke="#00B98D" stroke-width="1.51" d="M1117.528-93.356L1105.067,7.717l109.379-44.306L1117.528-93.356z"/>
<path fill="#00B68B" stroke="#00B68B" stroke-width="1.51" d="M1105.067,7.717l98.303,40.152l11.076-84.458L1105.067,7.717z"/>
<path fill="#00CE9D" stroke="#00CE9D" stroke-width="1.51" d="M343.564-100.278l224.989,5.538l203.529-57.459L343.564-100.278z"/>
<path fill="#00BD90" stroke="#00BD90" stroke-width="1.51" d="M1035.839-127.277l81.688,33.921l56.074-23.537L1035.839-127.277z"/>
<path fill="#00936F" stroke="#00936F" stroke-width="1.51" d="M1179.832,816.986l-108.687,67.151l111.456,38.075L1179.832,816.986z"
	/>
<path fill="#00B78B" stroke="#00B78B" stroke-width="1.51" d="M1105.067,7.717l-24.23,60.92l122.533-20.768L1105.067,7.717z"/>
<path fill="#009975" stroke="#009975" stroke-width="1.51" d="M1089.837,729.759l49.151,54.69l54.69-83.765L1089.837,729.759z"/>
<path fill="#009C76" stroke="#009C76" stroke-width="1.51" d="M1082.914,619.688l6.923,110.072l103.841-29.076L1082.914,619.688z"/>
<path fill="#00A67E" stroke="#00A67E" stroke-width="1.51" d="M1115.451,412.005l4.154,92.073l75.458-71.997L1115.451,412.005z"/>
<path fill="#009F79" stroke="#009F79" stroke-width="1.51" d="M1178.448,525.538l-95.534,94.149l114.225-17.307L1178.448,525.538z"
	/>
<path fill="#00A27B" stroke="#00A27B" stroke-width="1.51" d="M1119.604,504.078l-36.691,115.61l95.534-94.149L1119.604,504.078z"/>
<path fill="#009571" stroke="#009571" stroke-width="1.51" d="M1138.988,784.449l-67.843,99.688l108.687-67.151L1138.988,784.449z"
	/>
<path fill="#009974" stroke="#009974" stroke-width="1.51" d="M1012.302,738.067l58.843,146.07l18.691-154.377L1012.302,738.067z"/>
<path fill="#00A37C" stroke="#00A37C" stroke-width="1.51" d="M1008.148,581.612l74.766,38.075l36.691-115.61L1008.148,581.612z"/>
<path fill="#00B589" stroke="#00B589" stroke-width="1.51" d="M1080.837,68.637L1017.84,173.17l118.379,21.461L1080.837,68.637z"/>
<path fill="#00B287" stroke="#00B287" stroke-width="1.51" d="M1017.84,173.17l-8.307,156.454l126.686-134.994L1017.84,173.17z"/>
<path fill="#00AF84" stroke="#00AF84" stroke-width="1.51" d="M1136.219,194.631l-126.686,134.994l128.071-15.23L1136.219,194.631z"
	/>
<path fill="#00AB82" stroke="#00AB82" stroke-width="1.51" d="M1009.533,329.624l105.918,82.381l22.153-97.611L1009.533,329.624z"/>
<path fill="#009873" stroke="#009873" stroke-width="1.51" d="M1089.837,729.759l-18.691,154.377l67.843-99.688L1089.837,729.759z"
	/>
<path fill="#00AC82" stroke="#00AC82" stroke-width="1.51" d="M1009.533,329.624l6.923,76.15l98.995,6.23L1009.533,329.624z"/>
<path fill="#00A77F" stroke="#00A77F" stroke-width="1.51" d="M1115.451,412.005l-110.764,58.151l114.918,33.921L1115.451,412.005z"
	/>
<path fill="#009974" stroke="#009974" stroke-width="1.51" d="M1012.302,738.067l-41.536,88.611l100.38,57.459L1012.302,738.067z"/>
<path fill="#00BD90" stroke="#00BD90" stroke-width="1.51" d="M1035.839-127.277L966.612-22.051l138.455,29.768L1035.839-127.277z"
	/>
<path fill="#00AA81" stroke="#00AA81" stroke-width="1.51" d="M1016.455,405.775l-11.769,64.382l110.764-58.151L1016.455,405.775z"
	/>
<path fill="#00BC90" stroke="#00BC90" stroke-width="1.51" d="M1035.839-127.277l69.228,134.994l12.461-101.072L1035.839-127.277z"
	/>
<path fill="#00A67E" stroke="#00A67E" stroke-width="1.51" d="M1004.687,470.156l3.461,111.456l111.456-77.535L1004.687,470.156z"/>
<path fill="#009D77" stroke="#009D77" stroke-width="1.51" d="M1082.914,619.688l-70.612,118.379l77.535-8.307L1082.914,619.688z"/>
<path fill="#00B98D" stroke="#00B98D" stroke-width="1.51" d="M994.995,61.022l85.842,7.615l24.23-60.92L994.995,61.022z"/>
<path fill="#00BB8E" stroke="#00BB8E" stroke-width="1.51" d="M966.612-22.051l28.383,83.073l110.072-53.305L966.612-22.051z"/>
<path fill="#00B88B" stroke="#00B88B" stroke-width="1.51" d="M994.995,61.022l22.845,112.149l62.997-104.534L994.995,61.022z"/>
<path fill="#00A17A" stroke="#00A17A" stroke-width="1.51" d="M1008.148,581.612l4.154,156.454l70.612-118.379L1008.148,581.612z"/>
<path fill="#00B489" stroke="#00B489" stroke-width="1.51" d="M922.306,225.091l87.227,104.534l8.307-156.454L922.306,225.091z"/>
<path fill="#009772" stroke="#009772" stroke-width="1.51" d="M970.765,826.678l28.383,83.765l71.997-26.306L970.765,826.678z"/>
<path fill="#00D09E" stroke="#00D09E" stroke-width="1.51" d="M343.564-100.278L520.787-88.51l47.767-6.23L343.564-100.278z"/>
<path fill="#009E78" stroke="#009E78" stroke-width="1.51" d="M679.318,891.059l-68.535,13.153l263.757,24.23L679.318,891.059z"/>
<path fill="#00A27B" stroke="#00A27B" stroke-width="1.51" d="M1008.148,581.612l-91.38,15.922l95.534,140.532L1008.148,581.612z"/>
<path fill="#00A27B" stroke="#00A27B" stroke-width="1.51" d="M916.768,597.535l-40.152,128.071l135.686,12.461L916.768,597.535z"/>
<path fill="#00B98D" stroke="#00B98D" stroke-width="1.51" d="M994.995,61.022l-90.688,47.075l113.533,65.074L994.995,61.022z"/>
<path fill="#00C193" stroke="#00C193" stroke-width="1.51" d="M889.077-139.738l77.535,117.687l69.227-105.226L889.077-139.738z"/>
<path fill="#00C193" stroke="#00C193" stroke-width="1.51" d="M889.077-139.738l30.46,109.379l47.075,8.307L889.077-139.738z"/>
<path fill="#00A880" stroke="#00A880" stroke-width="1.51" d="M1004.687,470.156l-116.302,63.689l119.764,47.767L1004.687,470.156z"
	/>
<path fill="#00A77F" stroke="#00A77F" stroke-width="1.51" d="M888.385,533.846l28.383,63.689l91.38-15.922L888.385,533.846z"/>
<path fill="#00AE84" stroke="#00AE84" stroke-width="1.51" d="M1009.533,329.624l-108.687,62.997l115.61,13.153L1009.533,329.624z"
	/>
<path fill="#00AC83" stroke="#00AC83" stroke-width="1.51" d="M900.846,392.621l103.841,77.535l11.769-64.382L900.846,392.621z"/>
<path fill="#00B88B" stroke="#00B88B" stroke-width="1.51" d="M904.307,108.096l17.999,116.994l95.534-51.921L904.307,108.096z"/>
<path fill="#009C77" stroke="#009C77" stroke-width="1.51" d="M887,787.218l83.765,39.46l41.536-88.611L887,787.218z"/>
<path fill="#00B489" stroke="#00B489" stroke-width="1.51" d="M922.306,225.091l-50.536,33.921l137.763,70.612L922.306,225.091z"/>
<path fill="#009F79" stroke="#009F79" stroke-width="1.51" d="M876.616,725.606L887,787.218l125.302-49.151L876.616,725.606z"/>
<path fill="#00B187" stroke="#00B187" stroke-width="1.51" d="M871.77,259.012l29.076,133.609l108.687-62.997L871.77,259.012z"/>
<path fill="#00AB82" stroke="#00AB82" stroke-width="1.51" d="M900.846,392.621l-12.461,141.224l116.302-63.689L900.846,392.621z"/>
<path fill="#00BD90" stroke="#00BD90" stroke-width="1.51" d="M966.612-22.051l-47.075-8.307l75.458,91.38L966.612-22.051z"/>
<path fill="#009873" stroke="#009873" stroke-width="1.51" d="M970.765,826.678l-96.226,101.764l124.609-17.999L970.765,826.678z"/>
<path fill="#00BC90" stroke="#00BC90" stroke-width="1.51" d="M919.537-30.359l-15.23,138.455l90.688-47.075L919.537-30.359z"/>
<path fill="#009B76" stroke="#009B76" stroke-width="1.51" d="M887,787.218l-12.461,141.224l96.226-101.764L887,787.218z"/>
<path fill="#009C76" stroke="#009C76" stroke-width="1.51" d="M827.464,894.521l-148.147-3.461l195.221,37.383L827.464,894.521z"/>
<path fill="#00A67E" stroke="#00A67E" stroke-width="1.51" d="M794.235,567.767l-1.385,155.07l83.765,2.769L794.235,567.767z"/>
<path fill="#009C76" stroke="#009C76" stroke-width="1.51" d="M827.464,894.521l47.075,33.922L887,787.218L827.464,894.521z"/>
<path fill="#009D77" stroke="#009D77" stroke-width="1.51" d="M818.465,845.369l9,49.151L887,787.218L818.465,845.369z"/>
<path fill="#00AF85" stroke="#00AF85" stroke-width="1.51" d="M808.773,386.391l79.612,147.455l12.461-141.224L808.773,386.391z"/>
<path fill="#00B388" stroke="#00B388" stroke-width="1.51" d="M871.77,259.012l-62.997,127.379l92.073,6.23L871.77,259.012z"/>
<path fill="#00A67E" stroke="#00A67E" stroke-width="1.51" d="M794.235,567.767l82.381,157.839l40.152-128.071L794.235,567.767z"/>
<path fill="#00C495" stroke="#00C495" stroke-width="1.51" d="M889.077-139.738L756.16-42.127l163.377,11.769L889.077-139.738z"/>
<path fill="#00BE91" stroke="#00BE91" stroke-width="1.51" d="M781.082,86.636l123.225,21.461l15.23-138.455L781.082,86.636z"/>
<path fill="#00C293" stroke="#00C293" stroke-width="1.51" d="M756.16-42.127l24.922,128.763L919.537-30.359L756.16-42.127z"/>
<path fill="#00BA8D" stroke="#00BA8D" stroke-width="1.51" d="M904.307,108.096l-103.841,63.689l121.84,53.305L904.307,108.096z"/>
<path fill="#00B88C" stroke="#00B88C" stroke-width="1.51" d="M800.466,171.786l71.304,87.227l50.536-33.921L800.466,171.786z"/>
<path fill="#00A980" stroke="#00A980" stroke-width="1.51" d="M888.385,533.846l-94.149,33.921l122.533,29.768L888.385,533.846z"/>
<path fill="#00B68A" stroke="#00B68A" stroke-width="1.51" d="M773.467,292.242l35.306,94.149l62.997-127.379L773.467,292.242z"/>
<path fill="#00AE84" stroke="#00AE84" stroke-width="1.51" d="M808.773,386.391l-33.229,151.608l112.841-4.154L808.773,386.391z"/>
<path fill="#00C697" stroke="#00C697" stroke-width="1.51" d="M772.082-152.199L756.16-42.127l132.917-97.611L772.082-152.199z"/>
<path fill="#00BD90" stroke="#00BD90" stroke-width="1.51" d="M781.082,86.636l19.384,85.15l103.841-63.689L781.082,86.636z"/>
<path fill="#00A27B" stroke="#00A27B" stroke-width="1.51" d="M876.616,725.606l-83.765-2.769L887,787.218L876.616,725.606z"/>
<path fill="#00AB83" stroke="#00AB83" stroke-width="1.51" d="M775.544,537.999l18.691,29.768l94.149-33.921L775.544,537.999z"/>
<path fill="#00A07A" stroke="#00A07A" stroke-width="1.51" d="M792.851,722.837l25.614,122.533L887,787.218L792.851,722.837z"/>
<path fill="#00B98C" stroke="#00B98C" stroke-width="1.51" d="M800.466,171.786l-26.999,120.456l98.303-33.229L800.466,171.786z"/>
<path fill="#00CB9A" stroke="#00CB9A" stroke-width="1.51" d="M568.554-94.74l88.611,4.154l114.918-61.612L568.554-94.74z"/>
<path fill="#00A880" stroke="#00A880" stroke-width="1.51" d="M709.778,625.226v51.921l83.073,45.69L709.778,625.226z"/>
<path fill="#00A980" stroke="#00A980" stroke-width="1.51" d="M709.778,625.226l83.073,97.611l1.385-155.07L709.778,625.226z"/>
<path fill="#00BB8E" stroke="#00BB8E" stroke-width="1.51" d="M707.701,183.554l65.766,108.687l26.999-120.456L707.701,183.554z"/>
<path fill="#00B086" stroke="#00B086" stroke-width="1.51" d="M718.085,514.462l57.459,23.537l33.229-151.608L718.085,514.462z"/>
<path fill="#00B288" stroke="#00B288" stroke-width="1.51" d="M686.933,409.928l31.152,104.533l90.688-128.071L686.933,409.928z"/>
<path fill="#00A27B" stroke="#00A27B" stroke-width="1.51" d="M792.851,722.837l-114.918,79.612l140.532,42.921L792.851,722.837z"/>
<path fill="#009E78" stroke="#009E78" stroke-width="1.51" d="M818.465,845.369l-139.147,45.69l148.147,3.461L818.465,845.369z"/>
<path fill="#00BB8E" stroke="#00BB8E" stroke-width="1.51" d="M707.701,183.554l13.153,98.303l52.613,10.384L707.701,183.554z"/>
<path fill="#00A17A" stroke="#00A17A" stroke-width="1.51" d="M677.933,802.448l1.385,88.611l139.147-45.69L677.933,802.448z"/>
<path fill="#00BE91" stroke="#00BE91" stroke-width="1.51" d="M781.082,86.636l-73.381,96.918l92.765-11.769L781.082,86.636z"/>
<path fill="#00B58A" stroke="#00B58A" stroke-width="1.51" d="M773.467,292.242l-86.534,117.687l121.84-23.537L773.467,292.242z"/>
<path fill="#00B78B" stroke="#00B78B" stroke-width="1.51" d="M720.854,281.857l-33.922,128.071l86.534-117.687L720.854,281.857z"/>
<path fill="#00C092" stroke="#00C092" stroke-width="1.51" d="M677.933,113.635l29.768,69.92l73.381-96.918L677.933,113.635z"/>
<path fill="#00C495" stroke="#00C495" stroke-width="1.51" d="M756.16-42.127l-92.073,2.769L781.082,86.636L756.16-42.127z"/>
<path fill="#00C394" stroke="#00C394" stroke-width="1.51" d="M664.088-39.358l13.845,152.993l103.149-26.999L664.088-39.358z"/>
<path fill="#00A67E" stroke="#00A67E" stroke-width="1.51" d="M709.778,677.146l-31.845,125.302l114.918-79.612L709.778,677.146z"/>
<path fill="#00AC83" stroke="#00AC83" stroke-width="1.51" d="M775.544,537.999l-65.766,87.227l84.458-57.459L775.544,537.999z"/>
<path fill="#00C898" stroke="#00C898" stroke-width="1.51" d="M657.165-90.586l98.995,48.459l15.922-110.072L657.165-90.586z"/>
<path fill="#01DDA9" stroke="#01DDA9" stroke-width="1.51" d="M-161.796-151.507L33.425-103.74l148.147-2.077L-161.796-151.507z"/>
<path fill="#00AD84" stroke="#00AD84" stroke-width="1.51" d="M718.085,514.462l-8.307,110.764l65.766-87.227L718.085,514.462z"/>
<path fill="#00AA81" stroke="#00AA81" stroke-width="1.51" d="M312.412,911.828L41.04,941.595l407.75,10.384L312.412,911.828z"/>
<path fill="#00C898" stroke="#00C898" stroke-width="1.51" d="M657.165-90.586l6.923,51.228l92.073-2.769L657.165-90.586z"/>
<path fill="#00C596" stroke="#00C596" stroke-width="1.51" d="M664.088-39.358L606.629,92.174l71.304,21.461L664.088-39.358z"/>
<path fill="#00BF91" stroke="#00BF91" stroke-width="1.51" d="M559.554,168.324l33.921,162.685l114.225-147.455L559.554,168.324z"/>
<path fill="#00A880" stroke="#00A880" stroke-width="1.51" d="M613.551,686.146l64.382,116.302l31.845-125.302L613.551,686.146z"/>
<path fill="#00B389" stroke="#00B389" stroke-width="1.51" d="M686.933,409.928l-123.225,67.843l154.377,36.691L686.933,409.928z"/>
<path fill="#00AF85" stroke="#00AF85" stroke-width="1.51" d="M575.476,576.767l134.301,48.459l8.307-110.764L575.476,576.767z"/>
<path fill="#00BC8F" stroke="#00BC8F" stroke-width="1.51" d="M707.701,183.554L593.475,331.009l127.379-49.152L707.701,183.554z"/>
<path fill="#00B98C" stroke="#00B98C" stroke-width="1.51" d="M593.475,331.009l93.457,78.919l33.922-128.071L593.475,331.009z"/>
<path fill="#00B287" stroke="#00B287" stroke-width="1.51" d="M563.708,477.771l11.769,98.995l142.609-62.305L563.708,477.771z"/>
<path fill="#00AD84" stroke="#00AD84" stroke-width="1.51" d="M575.476,576.767l38.075,109.379l96.226-60.92L575.476,576.767z"/>
<path fill="#00AA82" stroke="#00AA82" stroke-width="1.51" d="M709.778,625.226l-96.226,60.92l96.226-9V625.226z"/>
<path fill="#00B88C" stroke="#00B88C" stroke-width="1.51" d="M593.475,331.009l-5.538,49.152l98.995,29.768L593.475,331.009z"/>
<path fill="#00C193" stroke="#00C193" stroke-width="1.51" d="M677.933,113.635l-118.379,54.69l148.147,15.23L677.933,113.635z"/>
<path fill="#00C798" stroke="#00C798" stroke-width="1.51" d="M592.091-43.512l14.538,135.686l57.459-131.532L592.091-43.512z"/>
<path fill="#00C394" stroke="#00C394" stroke-width="1.51" d="M606.629,92.174l-47.075,76.15l118.379-54.69L606.629,92.174z"/>
<path fill="#00A77F" stroke="#00A77F" stroke-width="1.51" d="M613.551,686.146l-7.615,148.147l71.997-31.845L613.551,686.146z"/>
<path fill="#00A37C" stroke="#00A37C" stroke-width="1.51" d="M677.933,802.448l-71.997,31.845l73.381,56.767L677.933,802.448z"/>
<path fill="#00B78B" stroke="#00B78B" stroke-width="1.51" d="M587.937,380.16l-24.23,97.611l123.225-67.843L587.937,380.16z"/>
<path fill="#00A27B" stroke="#00A27B" stroke-width="1.51" d="M605.936,834.293l4.846,69.92l68.535-13.153L605.936,834.293z"/>
<path fill="#00C999" stroke="#00C999" stroke-width="1.51" d="M657.165-90.586l-65.074,47.075l71.997,4.154L657.165-90.586z"/>
<path fill="#00CB9B" stroke="#00CB9B" stroke-width="1.51" d="M568.554-94.74l23.537,51.228l65.074-47.075L568.554-94.74z"/>
<path fill="#00BF91" stroke="#00BF91" stroke-width="1.51" d="M559.554,168.324l-59.536,152.993l93.457,9.692L559.554,168.324z"/>
<path fill="#00AA81" stroke="#00AA81" stroke-width="1.51" d="M473.712,706.914l-26.306,94.842l158.531,32.537L473.712,706.914z"/>
<path fill="#00C999" stroke="#00C999" stroke-width="1.51" d="M592.091-43.512L470.943-8.898L606.629,92.174L592.091-43.512z"/>
<path fill="#00C999" stroke="#00C999" stroke-width="1.51" d="M470.943-8.898l3.461,89.996l132.225,11.076L470.943-8.898z"/>
<path fill="#00A67E" stroke="#00A67E" stroke-width="1.51" d="M605.936,834.293l-158.531-32.537l163.377,102.457L605.936,834.293z"
	/>
<path fill="#00A67E" stroke="#00A67E" stroke-width="1.51" d="M447.405,801.756l1.385,150.224l161.992-47.767L447.405,801.756z"/>
<path fill="#00B086" stroke="#00B086" stroke-width="1.51" d="M575.476,576.767l-92.765,23.537l130.84,85.842L575.476,576.767z"/>
<path fill="#00AF85" stroke="#00AF85" stroke-width="1.51" d="M482.711,600.304l-9,106.61l139.84-20.768L482.711,600.304z"/>
<path fill="#00AA81" stroke="#00AA81" stroke-width="1.51" d="M473.712,706.914l132.224,127.379l7.615-148.147L473.712,706.914z"/>
<path fill="#00C697" stroke="#00C697" stroke-width="1.51" d="M474.404,81.098l85.15,87.227l47.075-76.15L474.404,81.098z"/>
<path fill="#00B98D" stroke="#00B98D" stroke-width="1.51" d="M449.482,404.39l114.225,73.381l24.23-97.611L449.482,404.39z"/>
<path fill="#00CC9C" stroke="#00CC9C" stroke-width="1.51" d="M568.554-94.74l-47.767,6.23l71.304,44.998L568.554-94.74z"/>
<path fill="#00CC9B" stroke="#00CC9B" stroke-width="1.51" d="M520.787-88.51L470.943-8.898l121.148-34.614L520.787-88.51z"/>
<path fill="#00BC8F" stroke="#00BC8F" stroke-width="1.51" d="M500.018,321.317l87.919,58.843l5.538-49.152L500.018,321.317z"/>
<path fill="#00B589" stroke="#00B589" stroke-width="1.51" d="M563.708,477.771l-102.457,44.998l114.225,53.997L563.708,477.771z"/>
<path fill="#00BC8F" stroke="#00BC8F" stroke-width="1.51" d="M500.018,321.317l-50.536,83.073l138.455-24.23L500.018,321.317z"/>
<path fill="#00C394" stroke="#00C394" stroke-width="1.51" d="M456.405,154.479l43.613,166.838l59.536-152.993L456.405,154.479z"/>
<path fill="#00B488" stroke="#00B488" stroke-width="1.51" d="M461.251,522.769l21.461,77.535l92.765-23.537L461.251,522.769z"/>
<path fill="#00C697" stroke="#00C697" stroke-width="1.51" d="M474.404,81.098l-17.999,73.381l103.149,13.845L474.404,81.098z"/>
<path fill="#00B88C" stroke="#00B88C" stroke-width="1.51" d="M449.482,404.39l11.769,118.379l102.457-44.998L449.482,404.39z"/>
<path fill="#00C495" stroke="#00C495" stroke-width="1.51" d="M456.405,154.479l-67.843,101.072l111.456,65.766L456.405,154.479z"/>
<path fill="#00D09E" stroke="#00D09E" stroke-width="1.51" d="M343.564-100.278l127.379,91.38l49.844-79.612L343.564-100.278z"/>
<path fill="#00A980" stroke="#00A980" stroke-width="1.51" d="M447.405,801.756l-102.457,80.996l103.841,69.227L447.405,801.756z"/>
<path fill="#00D09E" stroke="#00D09E" stroke-width="1.51" d="M343.564-100.278l36.691,99.688l90.688-8.307L343.564-100.278z"/>
<path fill="#00B086" stroke="#00B086" stroke-width="1.51" d="M407.946,706.222l65.766,0.692l9-106.61L407.946,706.222z"/>
<path fill="#00B388" stroke="#00B388" stroke-width="1.51" d="M405.869,587.151l2.077,119.071l74.766-105.918L405.869,587.151z"/>
<path fill="#00C092" stroke="#00C092" stroke-width="1.51" d="M388.562,255.551l60.92,148.839l50.536-83.073L388.562,255.551z"/>
<path fill="#00C697" stroke="#00C697" stroke-width="1.51" d="M373.332,204.323l15.23,51.228l67.843-101.072L373.332,204.323z"/>
<path fill="#00BB8E" stroke="#00BB8E" stroke-width="1.51" d="M449.482,404.39l-100.38,20.768l112.149,97.611L449.482,404.39z"/>
<path fill="#00BA8E" stroke="#00BA8E" stroke-width="1.51" d="M349.102,425.158l4.154,93.457l107.995,4.154L349.102,425.158z"/>
<path fill="#00AE84" stroke="#00AE84" stroke-width="1.51" d="M407.946,706.222l39.46,95.534l26.306-94.842L407.946,706.222z"/>
<path fill="#00C998" stroke="#00C998" stroke-width="1.51" d="M396.177,110.173l60.228,44.306l17.999-73.381L396.177,110.173z"/>
<path fill="#00CC9B" stroke="#00CC9B" stroke-width="1.51" d="M470.943-8.898l-90.688,8.307l94.149,81.688L470.943-8.898z"/>
<path fill="#00B58A" stroke="#00B58A" stroke-width="1.51" d="M461.251,522.769l-55.382,64.382l76.842,13.153L461.251,522.769z"/>
<path fill="#00CC9B" stroke="#00CC9B" stroke-width="1.51" d="M380.255-0.591l15.922,110.764l78.227-29.076L380.255-0.591z"/>
<path fill="#00C092" stroke="#00C092" stroke-width="1.51" d="M388.562,255.551l-39.46,169.607l100.38-20.768L388.562,255.551z"/>
<path fill="#00AD84" stroke="#00AD84" stroke-width="1.51" d="M167.034,889.675L41.04,941.595l271.372-29.768L167.034,889.675z"/>
<path fill="#00C394" stroke="#00C394" stroke-width="1.51" d="M313.104,283.242l35.998,141.916l39.46-169.607L313.104,283.242z"/>
<path fill="#00AE84" stroke="#00AE84" stroke-width="1.51" d="M407.946,706.222l-58.151,74.073l97.611,21.461L407.946,706.222z"/>
<path fill="#00B88C" stroke="#00B88C" stroke-width="1.51" d="M353.256,518.615l52.613,68.535l55.382-64.382L353.256,518.615z"/>
<path fill="#00C898" stroke="#00C898" stroke-width="1.51" d="M396.177,110.173l-22.845,94.149l83.073-49.844L396.177,110.173z"/>
<path fill="#00AC83" stroke="#00AC83" stroke-width="1.51" d="M349.795,780.295l-4.846,102.457l102.457-80.996L349.795,780.295z"/>
<path fill="#00A880" stroke="#00A880" stroke-width="1.51" d="M344.949,882.752l-32.537,29.076l136.378,40.152L344.949,882.752z"/>
<path fill="#00D5A3" stroke="#00D5A3" stroke-width="1.51" d="M181.572-105.816l119.764,19.384l42.229-13.845L181.572-105.816z"/>
<path fill="#00C293" stroke="#00C293" stroke-width="1.51" d="M313.104,283.242l-21.461,116.302l57.459,25.614L313.104,283.242z"/>
<path fill="#00CD9C" stroke="#00CD9C" stroke-width="1.51" d="M380.255-0.591l-73.381,123.225l89.303-12.461L380.255-0.591z"/>
<path fill="#00CA9A" stroke="#00CA9A" stroke-width="1.51" d="M306.874,122.634l66.458,81.688l22.845-94.149L306.874,122.634z"/>
<path fill="#00B086" stroke="#00B086" stroke-width="1.51" d="M307.566,774.065l42.229,6.23l58.151-74.073L307.566,774.065z"/>
<path fill="#00B287" stroke="#00B287" stroke-width="1.51" d="M256.338,726.298l51.228,47.767l100.38-67.843L256.338,726.298z"/>
<path fill="#00B58A" stroke="#00B58A" stroke-width="1.51" d="M405.869,587.151l-126.686,1.385l128.763,117.687L405.869,587.151z"/>
<path fill="#00B489" stroke="#00B489" stroke-width="1.51" d="M279.183,588.535l-22.845,137.763l151.608-20.076L279.183,588.535z"/>
<path fill="#00B98C" stroke="#00B98C" stroke-width="1.51" d="M353.256,518.615l-74.073,69.92l126.686-1.385L353.256,518.615z"/>
<path fill="#00D2A0" stroke="#00D2A0" stroke-width="1.51" d="M343.564-100.278l-42.229,13.845l78.919,85.842L343.564-100.278z"/>
<path fill="#00D09E" stroke="#00D09E" stroke-width="1.51" d="M252.184-18.59l54.69,141.224L380.255-0.591L252.184-18.59z"/>
<path fill="#00C696" stroke="#00C696" stroke-width="1.51" d="M373.332,204.323l-60.228,78.919l75.458-27.691L373.332,204.323z"/>
<path fill="#00D2A0" stroke="#00D2A0" stroke-width="1.51" d="M301.335-86.433L252.184-18.59L380.255-0.591L301.335-86.433z"/>
<path fill="#00AE84" stroke="#00AE84" stroke-width="1.51" d="M307.566,774.065l37.383,108.687l4.846-102.457L307.566,774.065z"/>
<path fill="#00C898" stroke="#00C898" stroke-width="1.51" d="M255.645,176.632l57.459,106.61l60.228-78.919L255.645,176.632z"/>
<path fill="#00CB9A" stroke="#00CB9A" stroke-width="1.51" d="M306.874,122.634l-51.228,53.997l117.687,27.691L306.874,122.634z"/>
<path fill="#00AC83" stroke="#00AC83" stroke-width="1.51" d="M307.566,774.065l4.846,137.763l32.537-29.076L307.566,774.065z"/>
<path fill="#00BF91" stroke="#00BF91" stroke-width="1.51" d="M291.644,399.544l-45.69,116.302l103.149-90.688L291.644,399.544z"/>
<path fill="#00BD90" stroke="#00BD90" stroke-width="1.51" d="M349.102,425.158l-103.149,90.688l107.303,2.769L349.102,425.158z"/>
<path fill="#00BB8E" stroke="#00BB8E" stroke-width="1.51" d="M245.953,515.846l33.229,72.689l74.073-69.92L245.953,515.846z"/>
<path fill="#00D2A0" stroke="#00D2A0" stroke-width="1.51" d="M170.496,19.485l4.846,83.765l76.842-121.84L170.496,19.485z"/>
<path fill="#00D09E" stroke="#00D09E" stroke-width="1.51" d="M252.184-18.59l-76.842,121.84l131.532,19.384L252.184-18.59z"/>
<path fill="#00B288" stroke="#00B288" stroke-width="1.51" d="M256.338,726.298l-109.379,67.151l160.608-19.384L256.338,726.298z"/>
<path fill="#00B086" stroke="#00B086" stroke-width="1.51" d="M146.958,793.449l20.076,96.226l140.532-115.61L146.958,793.449z"/>
<path fill="#00AD84" stroke="#00AD84" stroke-width="1.51" d="M307.566,774.065l-140.532,115.61l145.378,22.153L307.566,774.065z"/>
<path fill="#00C596" stroke="#00C596" stroke-width="1.51" d="M202.34,299.857l89.303,99.688l21.461-116.302L202.34,299.857z"/>
<path fill="#00C898" stroke="#00C898" stroke-width="1.51" d="M255.645,176.632L202.34,299.857l110.764-16.615L255.645,176.632z"/>
<path fill="#00B68B" stroke="#00B68B" stroke-width="1.51" d="M183.649,716.606l72.689,9.692l22.845-137.763L183.649,716.606z"/>
<path fill="#00CD9C" stroke="#00CD9C" stroke-width="1.51" d="M175.341,103.251l80.304,73.381l51.228-53.997L175.341,103.251z"/>
<path fill="#00BF91" stroke="#00BF91" stroke-width="1.51" d="M195.417,508.924l50.536,6.923l45.69-116.302L195.417,508.924z"/>
<path fill="#00D5A3" stroke="#00D5A3" stroke-width="1.51" d="M181.572-105.816l70.612,87.227l49.152-67.843L181.572-105.816z"/>
<path fill="#00B98D" stroke="#00B98D" stroke-width="1.51" d="M133.113,598.919l50.536,117.687l95.534-128.071L133.113,598.919z"/>
<path fill="#00C596" stroke="#00C596" stroke-width="1.51" d="M202.34,299.857l-59.536,80.996l148.839,18.691L202.34,299.857z"/>
<path fill="#00C293" stroke="#00C293" stroke-width="1.51" d="M142.805,380.853l52.613,128.071l96.226-109.379L142.805,380.853z"/>
<path fill="#00CE9D" stroke="#00CE9D" stroke-width="1.51" d="M175.341,103.251l4.846,52.613l75.458,20.768L175.341,103.251z"/>
<path fill="#00B589" stroke="#00B589" stroke-width="1.51" d="M183.649,716.606l-36.691,76.842l109.379-67.151L183.649,716.606z"/>
<path fill="#00BC8F" stroke="#00BC8F" stroke-width="1.51" d="M245.953,515.846l-50.536-6.923l83.765,79.612L245.953,515.846z"/>
<path fill="#00BC8F" stroke="#00BC8F" stroke-width="1.51" d="M195.417,508.924l-62.305,89.996l146.07-10.384L195.417,508.924z"/>
<path fill="#00D5A3" stroke="#00D5A3" stroke-width="1.51" d="M181.572-105.816L170.496,19.485l81.688-38.075L181.572-105.816z"/>
<path fill="#00CC9B" stroke="#00CC9B" stroke-width="1.51" d="M180.187,155.863l22.153,143.993l53.305-123.225L180.187,155.863z"/>
<path fill="#00D7A4" stroke="#00D7A4" stroke-width="1.51" d="M45.194-42.819l125.302,62.305l11.076-125.302L45.194-42.819z"/>
<path fill="#00C394" stroke="#00C394" stroke-width="1.51" d="M142.805,380.853l-85.15,107.995l137.763,20.076L142.805,380.853z"/>
<path fill="#00C999" stroke="#00C999" stroke-width="1.51" d="M39.656,274.935l103.149,105.918l59.536-80.996L39.656,274.935z"/>
<path fill="#00CC9B" stroke="#00CC9B" stroke-width="1.51" d="M102.653,186.324l-62.997,88.611l162.685,24.922L102.653,186.324z"/>
<path fill="#00CC9B" stroke="#00CC9B" stroke-width="1.51" d="M180.187,155.863l-77.535,30.46l99.688,113.533L180.187,155.863z"/>
<path fill="#00C999" stroke="#00C999" stroke-width="1.51" d="M39.656,274.935L96.422,382.93l46.382-2.077L39.656,274.935z"/>
<path fill="#00C696" stroke="#00C696" stroke-width="1.51" d="M96.422,382.93L57.655,488.848l85.15-107.995L96.422,382.93z"/>
<path fill="#00B98D" stroke="#00B98D" stroke-width="1.51" d="M133.113,598.919L65.27,709.683l118.379,6.923L133.113,598.919z"/>
<path fill="#00BE91" stroke="#00BE91" stroke-width="1.51" d="M96.422,582.997l36.691,15.922l62.305-89.996L96.422,582.997z"/>
<path fill="#00C092" stroke="#00C092" stroke-width="1.51" d="M57.655,488.848l38.767,94.149l98.995-74.073L57.655,488.848z"/>
<path fill="#01DFAA" stroke="#01DFAA" stroke-width="1.51" d="M-161.796-151.507L-1.881-97.509l35.306-6.23L-161.796-151.507z"/>
<path fill="#00D3A1" stroke="#00D3A1" stroke-width="1.51" d="M170.496,19.485L41.732,52.714l133.609,50.536L170.496,19.485z"/>
<path fill="#00CF9E" stroke="#00CF9E" stroke-width="1.51" d="M175.341,103.251l-72.689,83.073l77.535-30.46L175.341,103.251z"/>
<path fill="#00DAA6" stroke="#00DAA6" stroke-width="1.51" d="M33.425-103.74l11.769,60.92l136.378-62.997L33.425-103.74z"/>
<path fill="#00B68A" stroke="#00B68A" stroke-width="1.51" d="M65.27,709.683l81.688,83.765l36.691-76.842L65.27,709.683z"/>
<path fill="#00B288" stroke="#00B288" stroke-width="1.51" d="M146.958,793.449L34.81,814.909l132.224,74.766L146.958,793.449z"/>
<path fill="#00D2A0" stroke="#00D2A0" stroke-width="1.51" d="M41.732,52.714l60.92,133.609l72.689-83.073L41.732,52.714z"/>
<path fill="#00D6A3" stroke="#00D6A3" stroke-width="1.51" d="M45.194-42.819l-3.461,95.534l128.763-33.229L45.194-42.819z"/>
<path fill="#00B187" stroke="#00B187" stroke-width="1.51" d="M34.81,814.909l6.23,126.686l125.994-51.921L34.81,814.909z"/>
<path fill="#00BC8F" stroke="#00BC8F" stroke-width="1.51" d="M96.422,582.997L65.27,709.683l67.843-110.764L96.422,582.997z"/>
<path fill="#00B68B" stroke="#00B68B" stroke-width="1.51" d="M65.27,709.683L34.81,814.909l112.149-21.461L65.27,709.683z"/>
<path fill="#00BE91" stroke="#00BE91" stroke-width="1.51" d="M-38.571,569.151L65.27,709.683l31.152-126.686L-38.571,569.151z"/>
<path fill="#00CC9B" stroke="#00CC9B" stroke-width="1.51" d="M39.656,274.935l-41.536,2.769L96.422,382.93L39.656,274.935z"/>
<path fill="#00C697" stroke="#00C697" stroke-width="1.51" d="M-52.417,427.235l110.072,61.612L96.422,382.93L-52.417,427.235z"/>
<path fill="#00D3A1" stroke="#00D3A1" stroke-width="1.51" d="M41.732,52.714l-91.38,130.84l152.3,2.769L41.732,52.714z"/>
<path fill="#00D09E" stroke="#00D09E" stroke-width="1.51" d="M-49.648,183.554l89.303,91.38l62.997-88.611L-49.648,183.554z"/>
<path fill="#00BD90" stroke="#00BD90" stroke-width="1.51" d="M-38.571,569.151l3.461,147.455l100.38-6.923L-38.571,569.151z"/>
<path fill="#00C193" stroke="#00C193" stroke-width="1.51" d="M57.655,488.848l-96.226,80.304l134.994,13.846L57.655,488.848z"/>
<path fill="#00CA9A" stroke="#00CA9A" stroke-width="1.51" d="M-1.881,277.704l-50.536,149.531L96.422,382.93L-1.881,277.704z"/>
<path fill="#00D09E" stroke="#00D09E" stroke-width="1.51" d="M-49.648,183.554l47.767,94.149l41.536-2.769L-49.648,183.554z"/>
<path fill="#00B287" stroke="#00B287" stroke-width="1.51" d="M34.81,814.909l-71.304,104.534l77.535,22.153L34.81,814.909z"/>
<path fill="#00D5A3" stroke="#00D5A3" stroke-width="1.51" d="M-24.726,55.484l-24.922,128.071l91.38-130.84L-24.726,55.484z"/>
<path fill="#00D8A5" stroke="#00D8A5" stroke-width="1.51" d="M-47.571,9.793l89.303,42.921l3.461-95.534L-47.571,9.793z"/>
<path fill="#00B98D" stroke="#00B98D" stroke-width="1.51" d="M-35.11,716.606l69.92,98.303l30.46-105.226L-35.11,716.606z"/>
<path fill="#00D8A4" stroke="#00D8A4" stroke-width="1.51" d="M-47.571,9.793l22.845,45.69l66.458-2.769L-47.571,9.793z"/>
<path fill="#00C596" stroke="#00C596" stroke-width="1.51" d="M-67.647,463.926l29.076,105.226l96.226-80.304L-67.647,463.926z"/>
<path fill="#00C797" stroke="#00C797" stroke-width="1.51" d="M-52.417,427.235l-15.23,36.691l125.302,24.922L-52.417,427.235z"/>
<path fill="#00B589" stroke="#00B589" stroke-width="1.51" d="M-69.032,836.37l32.537,83.073L34.81,814.909L-69.032,836.37z"/>
<path fill="#01DCA7" stroke="#01DCA7" stroke-width="1.51" d="M33.425-103.74l-35.306,6.23l47.075,54.69L33.425-103.74z"/>
<path fill="#01DBA7" stroke="#01DBA7" stroke-width="1.51" d="M-1.881-97.509L-47.571,9.793l92.765-52.613L-1.881-97.509z"/>
<path fill="#00B88C" stroke="#00B88C" stroke-width="1.51" d="M-35.11,716.606L-69.032,836.37L34.81,814.909L-35.11,716.606z"/>
<path fill="#00C092" stroke="#00C092" stroke-width="1.51" d="M-38.571,569.151l-79.612,67.151l83.073,80.304L-38.571,569.151z"/>
<path fill="#00D7A4" stroke="#00D7A4" stroke-width="1.51" d="M-109.184,63.099l59.536,120.456l24.922-128.071L-109.184,63.099z"/>
<path fill="#00D19F" stroke="#00D19F" stroke-width="1.51" d="M-49.648,183.554l-121.148,124.609l168.915-30.46L-49.648,183.554z"/>
<path fill="#00CD9C" stroke="#00CD9C" stroke-width="1.51" d="M-170.796,308.164l118.379,119.071l50.536-149.531L-170.796,308.164z"
	/>
<path fill="#01DCA7" stroke="#01DCA7" stroke-width="1.51" d="M-127.875-2.668l80.304,12.461l45.69-107.303L-127.875-2.668z"/>
<path fill="#01DFAA" stroke="#01DFAA" stroke-width="1.51" d="M-161.796-151.507l33.921,148.839L-1.881-97.509L-161.796-151.507z"/>
<path fill="#00CC9C" stroke="#00CC9C" stroke-width="1.51" d="M-170.796,308.164l22.153,110.072l96.226,9L-170.796,308.164z"/>
<path fill="#00D4A1" stroke="#00D4A1" stroke-width="1.51" d="M-166.642,203.63l-4.154,104.534l121.148-124.609L-166.642,203.63z"/>
<path fill="#00C697" stroke="#00C697" stroke-width="1.51" d="M-67.647,463.926l-58.151,43.613l87.227,61.612L-67.647,463.926z"/>
<path fill="#00B58A" stroke="#00B58A" stroke-width="1.51" d="M-69.032,836.37l-35.998,56.074l68.535,26.999L-69.032,836.37z"/>
<path fill="#00BA8D" stroke="#00BA8D" stroke-width="1.51" d="M-145.182,783.064l76.15,53.305l33.921-119.764L-145.182,783.064z"/>
<path fill="#00D9A5" stroke="#00D9A5" stroke-width="1.51" d="M-47.571,9.793l-61.612,53.305l84.458-7.615L-47.571,9.793z"/>
<path fill="#00BF92" stroke="#00BF92" stroke-width="1.51" d="M-118.183,636.302l-30.46,38.767l113.533,41.536L-118.183,636.302z"/>
<path fill="#00BD90" stroke="#00BD90" stroke-width="1.51" d="M-148.643,675.07l3.461,107.995l110.072-66.458L-148.643,675.07z"/>
<path fill="#00D6A3" stroke="#00D6A3" stroke-width="1.51" d="M-109.184,63.099l-57.459,140.532l116.994-20.076L-109.184,63.099z"/>
<path fill="#00C495" stroke="#00C495" stroke-width="1.51" d="M-125.798,507.539l7.615,128.763l79.612-67.151L-125.798,507.539z"/>
<path fill="#00DBA7" stroke="#00DBA7" stroke-width="1.51" d="M-127.875-2.668l18.691,65.766l61.612-53.305L-127.875-2.668z"/>
<path fill="#00CA9A" stroke="#00CA9A" stroke-width="1.51" d="M-148.643,418.236l80.996,45.69l15.23-36.691L-148.643,418.236z"/>
<path fill="#00C999" stroke="#00C999" stroke-width="1.51" d="M-148.643,418.236l22.845,89.303l58.151-43.613L-148.643,418.236z"/>
<path fill="#00B88C" stroke="#00B88C" stroke-width="1.51" d="M-145.182,783.064l40.152,109.379l35.998-56.074L-145.182,783.064z"/>
<path fill="#00C395" stroke="#00C395" stroke-width="1.51" d="M-125.798,507.539l-22.845,167.531l30.46-38.767L-125.798,507.539z"/>
<path fill="#00D9A6" stroke="#00D9A6" stroke-width="1.51" d="M-127.875-2.668l-38.767,206.298l57.459-140.532L-127.875-2.668z"/>
<path fill="#00C797" stroke="#00C797" stroke-width="1.51" d="M-148.643,418.236V675.07l22.845-167.531L-148.643,418.236z"/>
<path fill="#00DCA8" stroke="#00DCA8" stroke-width="1.51" d="M-161.796-151.507l-4.846,355.137l38.767-206.298L-161.796-151.507z"
	/>
<path fill="#00CA9A" stroke="#00CA9A" stroke-width="1.51" d="M-148.643,418.236l-22.153-110.072l22.153,366.906V418.236z"/>
<path fill="#00C596" stroke="#00C596" stroke-width="1.51" d="M-148.643,675.07l-22.153-366.906l25.614,474.901L-148.643,675.07z"/>
<path fill="#00D9A5" stroke="#00D9A5" stroke-width="1.51" d="M-170.796,308.164l4.154-104.534l4.846-355.137L-170.796,308.164z"/>
<g>
</g>
<g>
</g>
<g>
</g>
<g>
</g>
<g>
</g>
<g>
</g>
<g>
</g>
<g>
</g>
<g>
</g>
<g>
</g>
<g>
</g>
<g>
</g>
<g>
</g>
<g>
</g>
<g>
</g>
</svg>
