<?xml version="1.0" encoding="utf-8"?>
<!-- Generator: Adobe Illustrator 17.0.0, SVG Export Plug-In . SVG Version: 6.00 Build 0)  -->
<!DOCTYPE svg PUBLIC "-//W3C//DTD SVG 1.1//EN" "http://www.w3.org/Graphics/SVG/1.1/DTD/svg11.dtd">
<svg version="1.1" id="Layer_1" xmlns="http://www.w3.org/2000/svg" xmlns:xlink="http://www.w3.org/1999/xlink" x="0px" y="0px"
	 width="169.046px" height="122.632px" viewBox="0 0 169.046 122.632" enable-background="new 0 0 169.046 122.632"
	 xml:space="preserve">
<g>
	<g>
		<g>
			<rect x="7.97" y="5.615" fill="#FFFFFF" width="10.294" height="111.515"/>
			<rect x="23.41" y="5.615" fill="#FFFFFF" width="6.862" height="82.349"/>
			<rect x="42.282" y="5.615" fill="#FFFFFF" width="6.862" height="82.349"/>
			<rect x="54.291" y="5.615" fill="#FFFFFF" width="10.294" height="82.349"/>
			<rect x="33.704" y="5.615" fill="#FFFFFF" width="5.147" height="82.349"/>
			<rect x="68.016" y="5.615" fill="#FFFFFF" width="5.147" height="82.349"/>
			<polygon fill="#FFFFFF" points="102.899,5.615 92.035,5.615 92.035,87.964 102.899,87.964 106.046,87.964 112.622,87.964 
				112.622,5.615 106.046,5.615 			"/>
			<rect x="76.594" y="5.615" fill="#FFFFFF" width="8.578" height="82.349"/>
			<rect x="140.072" y="5.615" fill="#FFFFFF" width="10.294" height="82.349"/>
			<polygon fill="#FFFFFF" points="128.633,5.615 119.484,5.615 119.484,87.964 128.633,87.964 130.349,87.964 134.925,87.964 
				134.925,5.615 130.349,5.615 			"/>
			<rect x="153.796" y="5.615" fill="#FFFFFF" width="8.578" height="111.515"/>
		</g>
		<g>
			<path fill="#FFFFFF" d="M34.969,106.881l-2.884,9.78h-2.321l-1.776-6.628c-0.07-0.254-0.114-0.541-0.134-0.859h-0.038
				c-0.013,0.216-0.07,0.497-0.172,0.84l-1.929,6.647h-2.273l-2.875-9.78h2.292l1.776,7.048c0.057,0.21,0.095,0.49,0.114,0.84h0.067
				c0.02-0.268,0.07-0.554,0.153-0.859l1.977-7.029h2.082l1.757,7.077c0.058,0.223,0.099,0.503,0.125,0.84h0.067
				c0.013-0.235,0.06-0.516,0.143-0.84l1.738-7.077H34.969z"/>
			<path fill="#FFFFFF" d="M44.813,116.661h-2.216v-5.349c0-1.936-0.646-2.903-1.938-2.903c-0.65,0-1.197,0.28-1.643,0.84
				c-0.446,0.561-0.668,1.277-0.668,2.149v5.263h-2.225v-14.479h2.225v6.323h0.038c0.739-1.235,1.796-1.853,3.171-1.853
				c2.171,0,3.257,1.328,3.257,3.983V116.661z"/>
			<path fill="#FFFFFF" d="M54.525,116.661h-2.149v-1.528h-0.039c-0.675,1.172-1.665,1.757-2.97,1.757
				c-0.961,0-1.714-0.261-2.259-0.783c-0.544-0.522-0.816-1.213-0.816-2.073c0-1.846,1.063-2.922,3.19-3.228l2.903-0.411
				c0-1.395-0.662-2.092-1.986-2.092c-1.166,0-2.216,0.401-3.152,1.204v-1.939c1.031-0.611,2.222-0.917,3.572-0.917
				c2.471,0,3.706,1.216,3.706,3.648V116.661z M52.385,111.857l-2.053,0.287c-0.637,0.083-1.116,0.237-1.438,0.463
				c-0.322,0.226-0.482,0.623-0.482,1.189c0,0.414,0.148,0.753,0.444,1.017c0.296,0.264,0.692,0.396,1.189,0.396
				c0.675,0,1.233-0.237,1.676-0.711c0.442-0.475,0.664-1.071,0.664-1.791V111.857z"/>
			<path fill="#FFFFFF" d="M61.896,116.556c-0.433,0.216-1.003,0.325-1.709,0.325c-1.897,0-2.846-0.911-2.846-2.731v-5.53h-1.633
				v-1.738h1.633v-2.264l2.216-0.63v2.894h2.34v1.738h-2.34v4.89c0,0.58,0.105,0.993,0.315,1.242
				c0.21,0.249,0.561,0.373,1.051,0.373c0.375,0,0.7-0.108,0.974-0.325V116.556z"/>
			<path fill="#FFFFFF" d="M70.146,116.212c-0.783,0.452-1.709,0.678-2.779,0.678c-1.452,0-2.624-0.454-3.515-1.361
				c-0.892-0.907-1.337-2.083-1.337-3.529c0-1.611,0.479-2.905,1.437-3.882c0.958-0.978,2.24-1.466,3.844-1.466
				c0.892,0,1.678,0.156,2.359,0.468v2.063c-0.682-0.51-1.407-0.764-2.178-0.764c-0.936,0-1.703,0.317-2.302,0.95
				c-0.599,0.634-0.898,1.463-0.898,2.488c0,1.013,0.282,1.812,0.845,2.397s1.32,0.878,2.269,0.878c0.796,0,1.547-0.283,2.254-0.85
				V116.212z"/>
			<path fill="#FFFFFF" d="M79.361,116.661h-2.149v-1.528h-0.039c-0.675,1.172-1.665,1.757-2.97,1.757
				c-0.961,0-1.714-0.261-2.259-0.783c-0.544-0.522-0.816-1.213-0.816-2.073c0-1.846,1.063-2.922,3.19-3.228l2.903-0.411
				c0-1.395-0.662-2.092-1.986-2.092c-1.166,0-2.216,0.401-3.152,1.204v-1.939c1.031-0.611,2.222-0.917,3.572-0.917
				c2.471,0,3.706,1.216,3.706,3.648V116.661z M77.221,111.857l-2.053,0.287c-0.637,0.083-1.116,0.237-1.438,0.463
				c-0.322,0.226-0.482,0.623-0.482,1.189c0,0.414,0.148,0.753,0.444,1.017c0.296,0.264,0.692,0.396,1.189,0.396
				c0.675,0,1.233-0.237,1.676-0.711c0.442-0.475,0.664-1.071,0.664-1.791V111.857z"/>
			<path fill="#FFFFFF" d="M90.285,116.661h-2.216v-5.511c0-1.827-0.646-2.741-1.938-2.741c-0.675,0-1.232,0.253-1.671,0.759
				c-0.439,0.506-0.659,1.145-0.659,1.915v5.578h-2.225v-9.78H83.8v1.624h0.038c0.732-1.235,1.789-1.853,3.171-1.853
				c1.063,0,1.875,0.346,2.436,1.036c0.56,0.691,0.84,1.689,0.84,2.994V116.661z"/>
			<path fill="#FFFFFF" d="M93.616,104.828c-0.363,0-0.673-0.118-0.931-0.354c-0.258-0.235-0.387-0.535-0.387-0.897
				s0.129-0.666,0.387-0.907c0.258-0.242,0.568-0.363,0.931-0.363c0.375,0,0.694,0.121,0.955,0.363
				c0.261,0.242,0.392,0.544,0.392,0.907c0,0.344-0.13,0.638-0.392,0.883S93.992,104.828,93.616,104.828z M94.714,116.661h-2.215
				v-9.78h2.215V116.661z"/>
			<path fill="#FFFFFF" d="M99.374,115.248h-0.039v1.414H97.12v-14.479h2.215v6.418h0.039c0.757-1.299,1.865-1.948,3.324-1.948
				c1.235,0,2.201,0.438,2.898,1.313s1.046,2.048,1.046,3.519c0,1.637-0.392,2.947-1.175,3.93c-0.783,0.984-1.853,1.476-3.209,1.476
				C100.984,116.89,100.023,116.343,99.374,115.248z M99.316,111.36v1.213c0,0.713,0.228,1.318,0.683,1.815
				c0.455,0.497,1.033,0.745,1.733,0.745c0.821,0,1.466-0.32,1.934-0.959c0.468-0.64,0.702-1.533,0.702-2.679
				c0-0.961-0.218-1.714-0.654-2.259c-0.437-0.544-1.027-0.816-1.772-0.816c-0.79,0-1.424,0.28-1.905,0.84
				C99.556,109.82,99.316,110.52,99.316,111.36z"/>
			<path fill="#FFFFFF" d="M116.945,116.661h-2.216v-1.547h-0.039c-0.643,1.185-1.643,1.776-2.999,1.776
				c-2.312,0-3.467-1.388-3.467-4.164v-5.845h2.216v5.616c0,1.757,0.678,2.636,2.035,2.636c0.655,0,1.195-0.242,1.619-0.726
				s0.635-1.118,0.635-1.901v-5.625h2.216V116.661z"/>
			<path fill="#FFFFFF" d="M127.812,106.881l-4.412,11.346c-0.917,2.025-2.203,3.037-3.859,3.037c-0.465,0-0.853-0.042-1.165-0.124
				v-1.843c0.35,0.114,0.668,0.172,0.955,0.172c0.828,0,1.445-0.408,1.853-1.223l0.659-1.604l-3.887-9.761h2.455l2.331,7.105
				c0.025,0.089,0.083,0.325,0.172,0.707h0.048c0.032-0.146,0.089-0.376,0.172-0.688l2.445-7.125H127.812z"/>
			<path fill="#FFFFFF" d="M134.409,103.987c-0.299-0.172-0.64-0.258-1.022-0.258c-1.076,0-1.614,0.608-1.614,1.824v1.328h2.273
				v1.738h-2.264v8.042h-2.216v-8.042h-1.671v-1.738h1.671v-1.585c0-1.032,0.337-1.845,1.012-2.44s1.519-0.893,2.531-0.893
				c0.547,0,0.98,0.061,1.299,0.182V103.987z"/>
			<path fill="#FFFFFF" d="M139.469,116.89c-1.509,0-2.714-0.457-3.615-1.37s-1.351-2.125-1.351-3.634
				c0-1.643,0.469-2.926,1.409-3.849c0.939-0.923,2.205-1.385,3.796-1.385c1.528,0,2.719,0.449,3.572,1.347s1.28,2.143,1.28,3.734
				c0,1.56-0.46,2.81-1.38,3.749C142.259,116.421,141.022,116.89,139.469,116.89z M139.574,108.419c-0.866,0-1.55,0.302-2.053,0.907
				c-0.503,0.605-0.755,1.439-0.755,2.502c0,1.025,0.255,1.832,0.764,2.421s1.19,0.883,2.044,0.883c0.872,0,1.542-0.29,2.01-0.869
				c0.468-0.579,0.702-1.404,0.702-2.474c0-1.076-0.234-1.907-0.702-2.493C141.117,108.712,140.446,108.419,139.574,108.419z"/>
			<path fill="#FFFFFF" d="M151.998,108.992c-0.267-0.21-0.653-0.315-1.156-0.315c-0.656,0-1.203,0.296-1.643,0.888
				s-0.659,1.397-0.659,2.417v4.68h-2.215v-9.78h2.215v2.015h0.039c0.216-0.688,0.549-1.224,0.998-1.609
				c0.449-0.385,0.95-0.578,1.504-0.578c0.401,0,0.707,0.061,0.917,0.182V108.992z"/>
		</g>
	</g>
</g>
<g>
</g>
<g>
</g>
<g>
</g>
<g>
</g>
<g>
</g>
<g>
</g>
<g>
</g>
<g>
</g>
<g>
</g>
<g>
</g>
<g>
</g>
<g>
</g>
<g>
</g>
<g>
</g>
<g>
</g>
</svg>
