<?xml version="1.0" standalone="no"?>
<!DOCTYPE svg PUBLIC "-//W3C//DTD SVG 20010904//EN"
 "http://www.w3.org/TR/2001/REC-SVG-20010904/DTD/svg10.dtd">
<svg version="1.0" xmlns="http://www.w3.org/2000/svg"
 width="260.000000pt" height="260.000000pt" viewBox="0 0 260.000000 260.000000"
 preserveAspectRatio="xMidYMid meet">
<metadata>
Created by potrace 1.11, written by Peter Selinger 2001-2013
</metadata>
<g transform="translate(0.000000,260.000000) scale(0.100000,-0.100000)"
fill="#000000" stroke="none">
<path d="M11 1295 l0 -1296 87 3 87 3 0 1290 0 1290 -87 3 -86 2 -1 -1295z"/>
<path d="M270 1299 l0 -1290 58 3 57 3 2 1286 2 1287 -59 1 -60 1 0 -1291z"/>
<path d="M447 2583 c-3 -5 -4 -584 -4 -1289 l0 -1280 43 -3 44 -2 0 1291 0
1290 -39 0 c-22 0 -42 -3 -44 -7z"/>
<path d="M588 2578 c-2 -7 -4 -587 -4 -1288 l1 -1275 58 -3 c56 -3 57 -3 58
25 1 36 1 2512 0 2536 -1 14 -11 17 -55 17 -34 0 -55 -5 -58 -12z"/>
<path d="M790 2531 c-1 -34 -1 -603 -1 -1266 0 -663 0 -1216 1 -1230 0 -25 1
-25 85 -25 l85 0 0 1289 0 1288 -85 2 -85 2 0 -60z"/>
<path d="M1016 1307 c1 -705 2 -1285 3 -1289 2 -13 79 -9 83 4 2 7 4 587 4
1288 l-1 1275 -45 2 -45 3 1 -1283z"/>
<path d="M1160 1298 l0 -1289 73 3 72 3 1 1275 c0 701 -2 1281 -4 1288 -3 9
-25 12 -73 11 l-69 -2 0 -1289z"/>
<path d="M1419 2567 c-1 -29 -1 -2505 0 -2535 l1 -22 173 2 172 3 0 1285 0
1285 -173 2 c-172 3 -172 3 -173 -20z"/>
<path d="M1879 2578 c-1 -17 -1 -2493 0 -2536 l1 -33 128 3 127 3 1 1286 1
1286 -128 2 c-98 1 -129 -2 -130 -11z"/>
<path d="M2224 1301 l1 -1286 85 0 85 0 1 1288 1 1287 -87 -1 -88 -1 2 -1287z"/>
<path d="M2450 1294 l0 -1294 73 0 74 0 0 1278 c1 702 -1 1285 -4 1294 -3 15
-16 17 -74 17 l-69 -1 0 -1294z"/>
</g>
</svg>
