<?xml version="1.0" standalone="no"?>
<!DOCTYPE svg PUBLIC "-//W3C//DTD SVG 20010904//EN"
 "http://www.w3.org/TR/2001/REC-SVG-20010904/DTD/svg10.dtd">
<svg version="1.0" xmlns="http://www.w3.org/2000/svg"
 width="468.000000pt" height="468.000000pt" viewBox="0 0 468.000000 468.000000"
 preserveAspectRatio="xMidYMid meet">
<metadata>
Created by potrace 1.11, written by Peter Selinger 2001-2013
</metadata>
<g transform="translate(0.000000,468.000000) scale(0.100000,-0.100000)"
fill="#000000" stroke="none">
<path d="M0 2430 l0 -1690 155 0 c148 0 155 1 155 20 1 11 1 765 1 1675 0 910
0 1662 -1 1670 0 13 -24 15 -155 15 l-155 0 0 -1690z"/>
<path d="M470 4108 c-1 -19 -1 -2266 -1 -2385 l1 -102 103 2 102 2 1 1248 1
1247 -104 0 c-75 0 -103 -3 -103 -12z"/>
<path d="M779 4113 c-1 -10 -1 -2453 0 -2475 1 -14 13 -16 79 -16 l79 0 0
1249 1 1249 -79 0 c-44 0 -79 -3 -80 -7z"/>
<path d="M1036 2882 c0 -682 4 -1243 7 -1249 4 -6 49 -11 107 -11 l100 0 0
1249 0 1249 -107 0 -108 0 1 -1238z"/>
<path d="M1405 4108 c-2 -7 -3 -569 -2 -1248 l2 -1235 156 -2 156 -1 0 1249 0
1249 -154 0 c-114 0 -155 -3 -158 -12z"/>
<path d="M1819 4118 c-1 -4 -1 -2446 0 -2475 1 -21 5 -22 79 -20 l77 2 1 1248
1 1247 -78 0 c-44 0 -79 -1 -80 -2z"/>
<path d="M2079 4103 c-1 -23 -1 -2466 0 -2475 1 -3 60 -6 131 -6 l130 0 0
1249 0 1249 -130 0 c-117 0 -130 -2 -131 -17z"/>
<path d="M2547 4113 c-2 -5 -3 -566 -3 -1248 l1 -1240 313 -1 312 -1 1 46 c0
25 1 587 2 1248 l2 1203 -312 0 c-171 0 -313 -3 -316 -7z"/>
<path d="M3379 4103 c-1 -24 -1 -2443 0 -2464 1 -14 28 -16 236 -16 l234 0 -1
1248 -1 1249 -234 0 c-215 0 -233 -1 -234 -17z"/>
<path d="M4007 4113 c-2 -5 -4 -567 -4 -1249 l0 -1242 156 2 156 1 0 1245 0
1245 -152 3 c-83 1 -154 -1 -156 -5z"/>
<path d="M4419 4108 c-1 -16 -1 -3338 0 -3355 1 -10 34 -13 131 -13 l130 0 0
1690 0 1690 -130 0 c-97 0 -130 -3 -131 -12z"/>
<path d="M3745 1191 c-36 -15 -57 -48 -59 -93 l-2 -43 -61 -3 -62 -3 -39 -117
-38 -116 -38 117 -38 117 -38 0 -38 0 59 -147 c53 -133 58 -151 48 -176 -17
-41 -36 -57 -69 -57 -23 0 -28 -4 -26 -25 1 -26 4 -27 44 -28 64 0 90 39 167
241 56 146 89 214 83 167 -2 -14 4 -21 22 -25 25 -5 25 -5 25 -125 l0 -120 28
1 c15 1 30 2 35 3 4 0 6 55 5 121 l-2 120 39 0 c37 0 38 1 31 28 -6 23 -12 27
-38 24 -30 -3 -31 -2 -29 33 2 41 29 69 59 61 13 -3 17 2 17 25 0 26 -3 29
-32 28 -18 0 -42 -4 -53 -8z"/>
<path d="M853 973 l2 -218 30 0 30 0 5 100 c5 106 17 139 51 150 27 9 66 -11
73 -39 3 -11 6 -64 6 -116 l0 -96 34 0 34 0 -2 121 c-2 130 -11 160 -52 175
-43 17 -81 11 -113 -16 l-31 -26 0 91 0 91 -34 0 -34 0 1 -217z"/>
<path d="M2562 1173 c-12 -23 -5 -40 19 -53 27 -15 64 22 49 50 -13 25 -56 26
-68 3z"/>
<path d="M2702 973 l3 -218 33 -1 c26 0 32 4 32 20 0 12 3 16 8 10 23 -35 94
-44 143 -18 64 33 88 157 46 235 -34 64 -111 79 -166 33 l-31 -26 -1 39 c0 21
0 62 1 91 l1 52 -35 0 -36 0 2 -217z m183 21 c43 -28 46 -128 4 -172 -26 -28
-61 -28 -94 1 -22 18 -27 31 -27 69 0 64 9 86 40 103 35 19 47 18 77 -1z"/>
<path d="M1530 1131 c-19 -5 -26 -15 -30 -41 -3 -19 -11 -36 -17 -36 -7 -1
-17 -2 -22 -3 -5 0 -11 -12 -13 -26 -5 -22 -2 -25 22 -25 27 0 27 -1 28 -67 0
-38 1 -85 1 -105 1 -53 29 -78 86 -78 25 0 45 3 46 8 0 4 2 16 4 28 4 18 0 20
-25 16 -38 -5 -44 9 -44 113 l-1 80 34 5 c25 4 35 11 37 27 3 19 -2 22 -34 25
-36 3 -37 4 -37 46 0 23 -2 42 -5 41 -3 -1 -16 -4 -30 -8z"/>
<path d="M392 1051 c-5 -3 7 -62 28 -136 51 -173 46 -164 82 -161 36 3 39 9
73 136 13 47 25 78 28 70 6 -15 26 -88 46 -166 10 -38 14 -41 42 -39 16 1 33
6 37 9 3 4 25 70 48 147 l41 139 -33 0 -33 0 -22 -97 c-12 -54 -25 -104 -29
-112 -4 -8 -19 33 -35 98 l-27 111 -32 0 c-32 0 -33 -1 -59 -92 -15 -51 -29
-100 -32 -108 -2 -8 -4 -17 -5 -20 -1 -3 -10 27 -20 66 -40 154 -39 151 -64
156 -14 3 -29 2 -34 -1z"/>
<path d="M1230 1047 c-27 -9 -35 -18 -37 -39 -2 -29 6 -35 23 -18 5 5 31 13
56 16 42 6 47 4 63 -20 22 -33 14 -42 -45 -49 -54 -7 -92 -20 -107 -38 -29
-38 -22 -108 15 -135 20 -16 98 -18 107 -4 3 5 16 15 27 21 18 10 20 9 15 -5
-4 -9 -3 -16 1 -17 4 0 21 -2 38 -3 l31 -2 -2 124 c-3 118 -4 125 -28 149 -30
31 -103 40 -157 20z m116 -158 c9 -14 -3 -55 -22 -73 -8 -9 -28 -16 -43 -16
-60 0 -70 67 -14 85 44 14 71 16 79 4z"/>
<path d="M1740 1045 c-45 -20 -77 -68 -85 -128 -13 -94 50 -167 143 -167 62 0
80 9 84 41 4 24 2 29 -11 23 -9 -3 -33 -8 -53 -11 -32 -5 -42 -1 -65 24 -30
32 -37 71 -22 119 14 46 75 72 124 54 18 -7 24 -5 28 10 2 10 1 23 -3 30 -12
19 -100 22 -140 5z"/>
<path d="M1981 1047 c-21 -7 -35 -20 -37 -31 -4 -32 5 -37 36 -21 40 21 83 19
105 -5 27 -30 13 -46 -46 -54 -73 -10 -107 -30 -117 -69 -10 -39 1 -84 25
-103 27 -20 91 -17 123 6 27 19 28 19 33 1 3 -13 13 -18 33 -17 l29 2 1 110
c2 121 -10 164 -52 183 -32 14 -89 13 -133 -2z m119 -175 c0 -37 -33 -72 -68
-72 -70 0 -71 74 -1 90 61 14 69 12 69 -18z"/>
<path d="M2345 1048 c-11 -6 -26 -18 -32 -26 -11 -14 -13 -13 -13 6 0 18 -6
22 -35 22 l-36 0 3 -147 3 -148 30 0 30 0 2 104 c2 86 5 108 21 123 20 20 55
30 77 22 22 -9 36 -67 35 -146 -3 -108 -4 -104 32 -104 l32 1 1 95 c1 119 -7
159 -40 188 -28 24 -77 29 -110 10z"/>
<path d="M3249 1049 c-9 -5 -13 -40 -14 -110 -2 -93 -4 -104 -24 -121 -30 -24
-63 -23 -87 3 -15 17 -18 37 -18 125 l-1 104 -32 0 c-37 0 -35 7 -35 -125 0
-49 5 -102 11 -117 20 -53 95 -77 143 -46 29 19 43 21 43 6 0 -19 65 -17 66 2
0 8 2 74 2 147 2 128 1 132 -20 136 -12 2 -27 0 -34 -4z"/>
<path d="M3925 1045 c-47 -22 -64 -39 -78 -81 -27 -75 -3 -158 56 -195 42 -26
139 -23 179 6 70 51 80 180 20 246 -36 38 -122 50 -177 24z m102 -43 c25 -4
45 -63 40 -116 -5 -56 -31 -86 -76 -86 -60 0 -97 63 -81 137 13 57 44 74 117
65z"/>
<path d="M4289 1031 l-29 -29 0 24 c0 21 -5 24 -34 24 l-34 0 2 -147 1 -148
30 0 30 0 5 95 c6 94 19 138 43 142 7 1 23 2 37 2 21 1 25 6 25 30 0 42 -37
45 -76 7z"/>
<path d="M2562 918 c1 -163 1 -165 36 -163 l27 1 3 147 3 147 -35 0 -35 0 1
-132z"/>
</g>
</svg>
