<?xml version="1.0" encoding="utf-8"?>
<!-- Generator: Adobe Illustrator 17.0.0, SVG Export Plug-In . SVG Version: 6.00 Build 0)  -->
<!DOCTYPE svg PUBLIC "-//W3C//DTD SVG 1.1//EN" "http://www.w3.org/Graphics/SVG/1.1/DTD/svg11.dtd">
<svg version="1.1" id="Layer_1" xmlns="http://www.w3.org/2000/svg" xmlns:xlink="http://www.w3.org/1999/xlink" x="0px" y="0px"
	 width="73.659px" height="69.112px" viewBox="0 0 73.659 69.112" enable-background="new 0 0 73.659 69.112" xml:space="preserve">
<linearGradient id="SVGID_1_" gradientUnits="userSpaceOnUse" x1="-181.329" y1="217.339" x2="-181.329" y2="280.761" gradientTransform="matrix(1 0 0 -1 219.04 284.452)">
	<stop  offset="0" style="stop-color:#CF8140"/>
	<stop  offset="1" style="stop-color:#FFE055"/>
</linearGradient>
<circle fill="url(#SVGID_1_)" cx="37.711" cy="35.402" r="31.711"/>
<g opacity="0.7">
	<path d="M56.506,32.775H23.216l7.943-7.944c0.696-0.695,0.696-1.824,0-2.519c-0.696-0.696-1.824-0.696-2.519,0L17.656,33.296
		c-0.696,0.695-0.696,1.824,0,2.519L28.641,46.8c0.348,0.348,0.804,0.522,1.259,0.522c0.456,0,0.912-0.174,1.259-0.522
		c0.696-0.695,0.696-1.824,0-2.519l-7.943-7.944h33.289c0.984,0,1.781-0.798,1.781-1.781C58.287,33.572,57.49,32.775,56.506,32.775z
		"/>
</g>
</svg>
