<?xml version="1.0" encoding="utf-8"?>
<!-- Generator: Adobe Illustrator 17.0.0, SVG Export Plug-In . SVG Version: 6.00 Build 0)  -->
<!DOCTYPE svg PUBLIC "-//W3C//DTD SVG 1.1//EN" "http://www.w3.org/Graphics/SVG/1.1/DTD/svg11.dtd">
<svg version="1.1" id="Layer_1" xmlns="http://www.w3.org/2000/svg" xmlns:xlink="http://www.w3.org/1999/xlink" x="0px" y="0px"
	 width="256.273px" height="330.051px" viewBox="0 0 256.273 330.051" enable-background="new 0 0 256.273 330.051"
	 xml:space="preserve">
<polyline fill="#E8BD93" points="98.795,1.46 206.073,27.549 174.241,43.269 136.152,33.952 109.475,14.47 "/>
<g>
	<g>
		<path fill="#DCB187" d="M169.644,101.18c-0.286-0.145-0.622-0.34-0.811-0.61c-0.456,0.456-0.912,0.912-1.368,1.368
			c0.484,0.297,0.737,0.818,1.044,1.278c0.621,0.929,2.122,0.36,1.828-0.771c-0.126-0.483-0.425-0.841-0.613-1.288
			c-0.22-0.523-0.295-1.193-0.286-1.754c0.02-1.29-1.98-1.288-2,0c-0.011,0.715,0.14,1.411,0.303,2.103
			c0.127,0.537,0.532,0.949,0.668,1.47c0.609-0.257,1.219-0.514,1.828-0.771c-0.51-0.764-0.96-1.503-1.762-1.996
			c-0.823-0.506-1.954,0.53-1.368,1.368c0.389,0.557,0.921,1.019,1.528,1.328C169.782,103.49,170.794,101.765,169.644,101.18
			L169.644,101.18z"/>
	</g>
</g>
<g>
	<path fill="#DCB187" d="M136.6,108.55c1.5-7.42-2.55-20.97,25.8-5.11c0.2-0.02,0.41-0.03,0.61-0.05c0-0.4,0.22-0.79,0.71-0.91
		c0.66-0.16,1.32-0.13,1.99-0.22c-2.69-1.07-5.41-2.04-8.15-2.91c4.65,0.6,20.405-5.279,23.355-4.219
		c0.42,0.35-4.056,2.117-3.973,2.664c0.81,5.306,4.098,13.286,9.258,18.166c20.14,19.05,39.02,38.9,52.39,63.33
		c14.6,26.68,23.44,59.88,13.37,89.73c-2.82,8.37-7.11,15.87-12.47,22.49c-3.14,2.31-6.35,4.46-9.66,6.44"/>
</g>
<path fill="#CFA67F" d="M104.601,92.554c-1.377,0.458-2.695,1.025-3.987,1.645c0.487-1.27,0.971-2.542,1.498-3.8
	c0.446-1.066-0.662-1.928-1.636-1.885c-0.776-0.564-1.994-0.462-2.257,0.755c-0.121,0.557-0.259,1.106-0.394,1.657
	c-0.528-0.033-1.091,0.166-1.455,0.652c-0.468,0.623-0.931,1.245-1.387,1.87c1.025-3.445,1.092-7.077,0.849-10.78
	c-0.108-1.652-2.477-2.089-2.946-0.399c-0.276,0.995-0.494,1.994-0.689,2.995c-0.052,0.016-0.096,0.048-0.146,0.069
	c0.196-1.977,0.261-3.972,0.115-5.999c-0.09-1.239-1.4-1.779-2.271-1.284c-0.07-0.752-0.136-1.5-0.194-2.243
	c-0.044-1.39-0.113-2.773-0.201-4.139c-0.124-1.912-3.036-1.949-3,0c0.002,0.111,0.007,0.222,0.01,0.333c-0.003,0-0.007,0-0.01,0
	c0.007,0.103,0.013,0.207,0.019,0.311c0.034,1.194,0.098,2.387,0.182,3.578c0.009,0.242,0.015,0.485,0.022,0.728
	C86.631,76.083,86.551,75.546,86.5,75c-0.179-1.909-3.181-1.926-3,0c0.363,3.868,1.771,7.393,3.013,10.991
	c-0.302,3.594-0.92,7.146-1.966,10.516c3.992,1.46,8.505,4.27,10.818,7.467c0.488-0.92,0.907-1.867,1.266-2.837
	c0.523,0.039,1.049-0.164,1.331-0.715c0.335-0.654,0.634-1.322,0.93-1.991c2.093-1.15,4.221-2.225,6.507-2.986
	C107.225,94.838,106.442,91.941,104.601,92.554z"/>
<path fill="#DCB187" d="M136.152,94.353c1.256,0.195,2.509,0.403,3.759,0.629C138.666,94.709,137.414,94.486,136.152,94.353z"/>
<path fill="#D9AE85" d="M138,108c0.009,0.027,0.017,0.056,0.026,0.083c0.026-0.008,0.051-0.017,0.077-0.025
	C138.068,108.039,138.035,108.019,138,108z"/>
<path fill="#CCA47D" d="M101,102c0.776-0.776,1.397-1.856,1.872-3.059c-1.326-0.103-2.661-0.269-4.012-0.521
	c0.22,0.09-2.35,1.34-5.89,3c-2.39-2.1-5.54-3.86-8.42-4.91c-0.04,0.11-0.08,0.23-0.11,0.34c-0.87,2.7-2.01,5.28-3.53,7.65
	c-1.55,1.73-3.24,3.37-4.88,4.99c-1.19,0.64-1.81,1.05-1.54,1.1c-22.76,18.74-43.78,39.4-58.78,65.16
	c-12.98,22.28-18.77,48.2-11,73.3c3.34,10.784,9.843,21.829,16.606,30.828c3.797-21.171,6.858-42.475,11.684-63.711
	C44,171.167,71.781,136.663,101,102z"/>
<path fill="#D4AB82" d="M138.103,100.126c2.072-2.402,0.064-5.239-3.077-5.929c-1.25-0.22,2.384,0.353,1.124,0.153
	c-1.39-0.14-2.79-0.2-4.2-0.11c-5.4,0.33-10.46,2.27-15.68,3.51c-4.52,1.07-8.9,1.54-13.4,1.19c-0.47,1.2-1.09,2.28-1.87,3.06
	c-31,34-58,69-69,114c-4.83,21.24-7.8,41.55-11.59,62.72c2.44,3.26,5.04,6.4,7.75,9.43c0.11,0.12,0.23,0.24,0.34,0.37
	c2.02,1.44,4.07,2.83,6.16,4.16c28.4,18.2,63.487,24.517,97.507,24.987c-3.093-70.14-9.488-139.833,4.433-209.117"/>
<path fill="#DFB389" d="M210,307c7.101-2.242,13.635-5.337,19.827-9.048c-0.276,0.016-0.553,0.031-0.827,0.048
	c2.333-86-27.206-155.252-92.132-191.283c-0.08,0.271-0.024,0.074-0.272,1.823c-16.009,68.128-11.152,140.761-5.835,211.097
	C157.79,320.011,185.03,315.458,210,307z"/>
<path fill="#B89471" d="M240.533,290.103c-8.876,10.211-19.537,18.609-31.398,24.189c-20.635,9.708-41.885,15.92-81.073,15.755
	c-25.639-0.108-52.28-6.84-75.145-20.744c-9.733-5.927-18.288-13.829-26.049-22.732c-2.219-2.544-4.374-5.174-6.464-7.853
	c2.165,1.778,4.363,3.494,6.603,5.137c54.627,40.327,127.499,41.265,187.958,17.682"/>
<path fill="#DCB187" d="M118.522,13.015C104.119,37.098,94.92,65.9,102.68,93.273c0.713-0.022,2.545-0.32,3.258-0.335
	c0-0.156,1.715-0.905-0.938-0.938c0.129,0.002,0,0.275,0,0.43c5.925-0.123,11.826,0,17.678,0.418
	c3.554-1.061,6.984-1.917,10.424-1.917l0.182,0.001c6.391,0.057,12.365,2.033,18.689,4.126c1.309,0.433,2.639,0.881,3.984,1.311
	c0.142-23.936,11.446-54.146,28.242-68.82"/>
<path fill="#CFA67F" d="M98.795,1.46C91.042,6.024,86.17,15.017,84.22,18.622c-3.845,7.105-8.262,16.692-8.3,27.851
	c-0.037,10.167,3.53,19.712,6.642,26.892c2.995,6.907,6.493,13.083,10.114,19.326c0.051,0.088,0.116,0.198,0.203,0.322
	c3.332-0.251,6.671,1.756,9.993,1.654c-4.077-28.417,3.812-57.283,15.651-81.652C111.093,9.971,104.11,7.302,98.795,1.46z"/>
<path fill="#DCB187" d="M162.901,97.387c14.195-7.489,26.507-17.449,34.666-28.044c4.06-5.27,7.506-12.354,10.537-21.659
	c1.397-4.297,2.942-10.707,0.217-16.755c-0.114-0.253-0.24-0.491-0.366-0.729c-1.367-0.535-1.515-1.827-2.692-2.776
	c-6.844,1.417-13.307,1.451-21.064,0.126c-19.522,13.47-29.963,45.668-28.242,68.82c1.461,0.467,2.942,0.915,4.441,1.298
	C161.615,97.979,162.4,97.651,162.901,97.387z"/>
<path fill="#DCB187" d="M204.086,27.968c1.177,0.95,2.502,1.697,3.869,2.232c-0.533-1.002-1.168-1.88-1.883-2.651
	C205.413,27.691,204.751,27.831,204.086,27.968z"/>
<path fill="#EDC196" d="M161.581,22.255c-0.446-0.047-0.895-0.101-1.344-0.158c0.37,0.152,0.741,0.303,1.113,0.454
	C161.426,22.451,161.504,22.354,161.581,22.255z"/>
<g opacity="0.6">
	<path d="M117.996,243.55c-0.554-1.439-0.984-3.059-1.288-4.859c-0.305-1.798-0.457-3.501-0.457-5.107
		c0-2.546,0.249-4.872,0.748-6.977c0.498-2.104,1.246-4.083,2.242-5.938c0.997-1.854,2.243-3.626,3.738-5.316
		c1.495-1.688,3.239-3.364,5.232-5.025c2.104-1.771,3.945-3.418,5.523-4.942c1.578-1.522,2.92-3.044,4.028-4.568
		c1.107-1.522,1.938-3.101,2.492-4.734c0.553-1.633,0.831-3.447,0.831-5.44c0-1.716-0.305-3.308-0.914-4.776
		c-0.61-1.466-1.482-2.727-2.616-3.779c-1.136-1.051-2.521-1.882-4.153-2.492c-1.634-0.609-3.447-0.914-5.44-0.914
		c-4.319,0-8.804,0.901-13.456,2.7c-4.651,1.8-9.053,4.526-13.206,8.181v-25c4.263-2.546,8.915-4.457,13.954-5.731
		c5.038-1.273,10.244-1.91,15.615-1.91c5.15,0,9.938,0.568,14.369,1.703c4.429,1.136,8.292,2.921,11.586,5.357
		c3.294,2.437,5.869,5.552,7.725,9.344c1.854,3.793,2.782,8.347,2.782,13.663c0,3.378-0.388,6.437-1.163,9.178
		c-0.776,2.741-1.911,5.33-3.406,7.766c-1.495,2.438-3.351,4.776-5.564,7.019c-2.215,2.243-4.763,4.555-7.642,6.935
		c-1.938,1.607-3.642,3.102-5.108,4.485c-1.468,1.385-2.687,2.755-3.654,4.111c-0.97,1.357-1.703,2.797-2.201,4.319
		c-0.499,1.524-0.748,3.253-0.748,5.191c0,1.329,0.179,2.687,0.54,4.07c0.359,1.385,0.843,2.547,1.453,3.488H117.996z
		 M130.122,279.929c-4.431,0-8.113-1.329-11.047-3.986c-2.936-2.769-4.402-6.035-4.402-9.801c0-3.875,1.466-7.114,4.402-9.718
		c2.934-2.603,6.616-3.904,11.047-3.904c4.373,0,8,1.302,10.88,3.904c2.878,2.547,4.319,5.786,4.319,9.718
		c0,3.986-1.412,7.281-4.236,9.884C138.206,278.627,134.551,279.929,130.122,279.929z"/>
</g>
<path fill="#EDCDAD" d="M182.165,89.987c-0.055,0.006-0.109,0.006-0.165,0.013"/>
<path fill="#EDCDAD" d="M100.706,99.535C99.481,98.838,98.16,98.29,97,98c-0.054,0-0.108-0.007-0.162-0.009
	c-1.478,0.791-2.626,1.884-3.049,3.405c0.074-0.132,0.144-0.264,0.21-0.396C96.268,100.093,98.531,99.619,100.706,99.535z"/>
<path fill="#EDCDAD" d="M103.357,101.8c0.07-0.033,0.14-0.068,0.211-0.101c-0.022-0.024-0.047-0.047-0.069-0.07
	C103.454,101.687,103.399,101.74,103.357,101.8z"/>
<path fill="#EDCDAD" d="M99.719,101.743c-3.044-0.341-6.039-1.83-8.901-3.457c0.192,0.21,0.383,0.421,0.571,0.634
	C94.005,100.057,96.952,101.491,99.719,101.743z"/>
<path fill="#EDCDAD" d="M100.382,101.782c-0.172-0.01-0.345-0.01-0.516-0.027C100.038,101.768,100.21,101.779,100.382,101.782z"/>
<path fill="#EDCDAD" d="M101.183,102.1"/>
<path fill="#EDCDAD" d="M90.28,94.89v0.01h0.01c0.01,0,0.01,0,0.01-0.01c0,0,0-0.01,0-0.02C90.29,94.87,90.28,94.88,90.28,94.89z"/>
<path fill="#EDCDAD" d="M90.28,94.89v0.01h0.01c0.01,0,0.01,0,0.01-0.01c0,0,0-0.01,0-0.02C90.29,94.87,90.28,94.88,90.28,94.89z"/>
<path fill="#E0C2A4" d="M143.56,92.45c-0.03,0.01-0.06,0.01-0.09,0.02l0.26,0.05C143.67,92.5,143.62,92.47,143.56,92.45z"/>
<path fill="#EDCDAD" d="M90.3,94.87c0,0.01,0,0.02,0,0.02c0,0.01,0,0.01-0.01,0.01h-0.01c0,0-0.01,0-0.02,0.01
	c0-0.01,0-0.01,0.01-0.02h0.01C90.28,94.88,90.29,94.87,90.3,94.87z"/>
<path fill="#EDCDAD" d="M90.19,95h-0.03c0.01,0,0.01,0,0.02-0.01C90.19,95,90.19,95,90.19,95z"/>
<path fill="#EDCDAD" d="M90.3,94.87c0,0.01,0,0.02,0,0.02c0,0.01,0,0.01-0.01,0.01h-0.01c0,0-0.01,0-0.02,0.01
	c0-0.01,0-0.01,0.01-0.02h0.01C90.28,94.88,90.29,94.87,90.3,94.87z"/>
<path fill="#EDCDAD" d="M83,90.18c0,0,0.03,0.02,0.08,0.03"/>
<path fill="#EDCDAD" d="M83.42,91.3c0.03,0.09,0.06,0.18,0.09,0.26c-0.03-0.09-0.09-0.17-0.13-0.26"/>
<path fill="#EDCDAD" d="M90.3,94.87c0,0.01,0,0.02,0,0.02c0,0.01,0,0.01-0.01,0.01h-0.01c0,0-0.01,0-0.02,0.01
	c0-0.01,0-0.01,0.01-0.02h0.01C90.28,94.88,90.29,94.87,90.3,94.87z"/>
<g>
	<path fill="#EDCDAD" d="M90.19,95h-0.03c0.01,0,0.01,0,0.02-0.01C90.19,95,90.19,95,90.19,95z"/>
</g>
<path fill="#E0C2A4" d="M171.83,93.604"/>
<path fill="#E0C2A4" d="M153.097,92.52"/>
<path fill="#EDCDAD" d="M178.707,88.954c-0.06-0.059-0.278-0.098-0.591-0.124c-0.785,1.123-1.613,2.205-2.567,3.193L178.707,88.954z
	"/>
<path fill="#E0C2A4" d="M146.708,92.89l-3.238-0.42c0.03-0.01,0.06-0.01,0.09-0.02c-4.27-1.76-9.79-2.83-15.16-2.89
	c-7.26-1.13-14.56-0.88-21.43,2.42c-1.21,0.44-2.31,1.05-3.4,1.67c-1.02,0.12-2,0.31-3.03,0.54c-2.43,0.54-3.84-0.62-5.81-1.65
	c-1.41-0.73-2.98-0.98-4.55-0.93c-0.96-0.69-2.03-1.49-3.24-2.15c-2-1.09-1.81-1.45-2.3-2.36c-0.78-1.48-1.88-0.98-2.05-0.49
	c-0.15,0.16-0.18,0.62-0.11,1.09C82.6,88.37,83,89.45,83,90.16c-2.37-0.68-4.12-0.55-4.32,1.26c-0.18,1.63,5.48,0.77,4.73,4.06
	c6.27,0.76,15.95,6.98,24.59,3.52l3.47-0.93c10.67-3.09,24.38-2.26,34.53,0.93c1.92,0.6,3.765,0.894,5.705,1.224 M151.705,100.224
	c3.25,0.5,3.293,0.85,8.455,0.596c0.02-0.01,4.697-1.368,4.717-1.378l10.333-3.647l1.45-2.522c0.29-0.25,5.58-2.636,5.99-2.636
	c0.12-0.18-0.25-0.788-0.13-0.968c0.88-1.32,1.84-3.889-2.55-2.799c-3.17,0.46-9.96,2.21-10.5,2.42c-0.82,0.32-1.77,0.77-2.58,1.16
	c-0.06,0.03-0.12,0.06-0.18,0.09c-1.85,0.87-3.65,1.85-5.47,2.77c-0.06-0.02-0.13-0.04-0.19-0.06
	c-2.127,1.752-10.811,0.592-14.342-0.36 M86.91,92.07c-0.03,0.01-0.05,0.01-0.06,0.02c0.01-0.01,0.02-0.02,0.03-0.02
	s0.02,0,0.03-0.01c0.01,0,0.01,0,0.02,0C86.92,92.07,86.92,92.07,86.91,92.07z M90.16,95c0.01,0,0.01,0,0.02-0.01
	C90.19,95,90.19,95,90.19,95H90.16z M90.3,94.89c0,0.01,0,0.01-0.01,0.01h-0.01c0,0-0.01,0-0.02,0.01c0-0.01,0-0.01,0.01-0.02h0.01
	c0-0.01,0.01-0.02,0.02-0.02C90.3,94.88,90.3,94.89,90.3,94.89z"/>
<path fill="#E0C2A4" d="M166.89,90.45c-0.06,0.03-0.12,0.06-0.18,0.09v-0.01C166.77,90.5,166.83,90.47,166.89,90.45z"/>
<path fill="#DEC0A3" d="M104.591,101.208c0.262-0.128,0.525-0.255,0.787-0.383C105.027,100.983,104.685,101.138,104.591,101.208z"/>
<path fill="#C7AC92" d="M184.2,91.8c-0.69,0.23-1.43,0.62-2.2,1.2c-7.44,4.79-12.48,9.64-22.57,10.04
	c-0.37,0.02-0.74,0.03-1.11,0.04c-3.3,0.11-6.63-0.21-9.89-0.99c-0.14-0.03-0.29-0.05-0.43-0.09c-12.75-2.55-26.95-6.54-38.29-0.91
	c-4.68,1.48-9.35,1.18-14.02,0.5c-3.15-1.3-6.15-2.52-8.86-1.97c-0.03-0.08-0.06-0.15-0.09-0.22c-0.02-0.06-0.03-0.12-0.04-0.17
	c-1.08-0.88-2.08-1.84-2.93-2.84c-0.15-0.17-0.23-0.35-0.29-0.54c-0.03-0.11-0.07-0.22-0.08-0.32c0-0.02,0.01-0.04,0.01-0.05
	c5.6-1.45,15.19,6.34,23.6,3.86c10.75-7.15,27.05-3.75,38.99-0.34c1.77,0.51,3.55,0.89,5.34,1.17
	c6.724,1.034,9.842-0.682,10.571-1.177c7.632-3.579,10.469-5.393,20.749-8.463C183.35,90.7,183.92,91.21,184.2,91.8z"/>
<path fill="#D4B599" d="M99.94,103.217c1.57,0.504,3.161,0.853,4.756,0.856c0.173-0.074,0.344-0.151,0.511-0.231
	c0.019,0.025,0.041,0.051,0.059,0.075c0.16-0.129,0.324-0.245,0.486-0.368c0.283-0.155,0.552-0.335,0.826-0.507
	C104.512,103.574,102.114,103.424,99.94,103.217z"/>
<path fill="#BFA48B" d="M92.6,102.44"/>
<path fill="#BFA48B" d="M173.174,101.633"/>
<path fill="#BFA48B" d="M160.153,105.051c-3.069,0.459-8.173-0.561-11.273-0.851c-1.32-0.12-2.62-0.32-3.91-0.54
	c-5.94-1.05-11.64-2.749-17.65-3.489c-7.446,0.094-11.379,0.453-16.45,2.93c-0.726,0.355-2.75,0.739-4.76,1.239
	c-0.47,0.1-1.2,0.15-1.89,0.13c-2.57-0.06-2.03,0.14-5.25-0.4c-0.86-0.29-2.21-0.73-2.58-0.79c-0.94-0.14-1.88-0.36-2.8-0.65
	l-5.73-1.74c-1.39-0.78-2.76-1.87-3.89-2.66l0.29-1.28c1.43,0.39,3.58,1.83,5,2.27c1.17,0.33,1.89,0.81,3.13,1.12
	c0.45,0.12,0.92,0.21,1.28,0.37c1.66,0.63,2.95,1.07,4.49,1.19c4.02,0.2,7.69,0.41,11.53-0.81c11.34-5.63,25.55-1.64,38.31,0.91
	c0.14,0.04,0.29,0.06,0.43,0.09c3.69,0.88,7.49,1.01,11.2,0.94c0.08-0.01,0.16-0.02,0.24-0.02c7.9-2.97,13.78-5.42,22.13-10.01
	c0.77-0.58,1.51-0.97,2.2-1.2c0.4,0.83,1.05,1.67,0,2.55l-9.314,4.42"/>
<path fill="#BFA48B" d="M166.3,102.545"/>
<g>
</g>
<g>
</g>
<g>
</g>
<g>
</g>
<g>
</g>
<g>
</g>
<g>
</g>
<g>
</g>
<g>
</g>
<g>
</g>
<g>
</g>
<g>
</g>
<g>
</g>
<g>
</g>
<g>
</g>
</svg>
