<?xml version="1.0" encoding="utf-8"?>
<!-- Generator: Adobe Illustrator 17.0.0, SVG Export Plug-In . SVG Version: 6.00 Build 0)  -->
<!DOCTYPE svg PUBLIC "-//W3C//DTD SVG 1.1//EN" "http://www.w3.org/Graphics/SVG/1.1/DTD/svg11.dtd">
<svg version="1.1" id="Layer_1" xmlns="http://www.w3.org/2000/svg" xmlns:xlink="http://www.w3.org/1999/xlink" x="0px" y="0px"
	 width="73.659px" height="69.112px" viewBox="0 0 73.659 69.112" enable-background="new 0 0 73.659 69.112" xml:space="preserve">
<linearGradient id="SVGID_1_" gradientUnits="userSpaceOnUse" x1="37.0328" y1="67.7634" x2="37.0328" y2="3.9794">
	<stop  offset="0" style="stop-color:#CF8140"/>
	<stop  offset="1" style="stop-color:#FFE055"/>
</linearGradient>
<circle fill="url(#SVGID_1_)" cx="37.033" cy="35.871" r="31.892"/>
<g opacity="0.8">
	<path d="M36.074,37.338l-1.363,1.363c-0.234,0.234-0.234,0.613,0,0.846c0.117,0.117,0.27,0.175,0.423,0.175
		c0.153,0,0.306-0.058,0.423-0.175l1.363-1.363c0.234-0.234,0.234-0.613,0-0.846C36.687,37.104,36.308,37.104,36.074,37.338z"/>
	<path d="M47.228,26.184l-9.295,9.295c-0.234,0.234-0.234,0.613,0,0.846c0.117,0.117,0.27,0.175,0.423,0.175
		c0.153,0,0.306-0.058,0.423-0.175l9.295-9.295c0.234-0.234,0.234-0.613,0-0.846C47.841,25.95,47.462,25.95,47.228,26.184z"/>
	<path d="M51.937,21.474l-2.727,2.727c-0.234,0.234-0.234,0.613,0,0.846c0.117,0.117,0.27,0.175,0.423,0.175
		s0.306-0.058,0.423-0.175l2.727-2.727c0.234-0.234,0.234-0.613,0-0.846C52.55,21.241,52.171,21.241,51.937,21.474z"/>
	<path d="M33.952,31.364l-6.609-6.609c-0.234-0.234-0.613-0.234-0.846,0c-0.234,0.234-0.234,0.613,0,0.846l6.609,6.609
		c0.117,0.117,0.27,0.175,0.423,0.175c0.153,0,0.306-0.058,0.423-0.175C34.185,31.976,34.185,31.597,33.952,31.364z"/>
	<path d="M24.062,21.474c-0.234-0.234-0.613-0.234-0.846,0c-0.234,0.234-0.234,0.613,0,0.846l1.566,1.566
		c0.117,0.117,0.27,0.175,0.423,0.175s0.306-0.058,0.423-0.175c0.234-0.234,0.234-0.613,0-0.846L24.062,21.474z"/>
	<path d="M57.008,51.942c-0.252-0.252-0.565-0.444-0.907-0.56c-0.114-0.342-0.305-0.651-0.564-0.91
		c-0.259-0.259-0.567-0.45-0.907-0.565c-0.115-0.34-0.306-0.648-0.564-0.907c-0.258-0.258-0.567-0.45-0.907-0.564
		c-0.115-0.34-0.306-0.648-0.564-0.907c-0.259-0.259-0.569-0.451-0.911-0.565c-0.116-0.342-0.309-0.655-0.56-0.907
		c-0.028-0.028-0.058-0.055-0.087-0.082c1.231-0.879,2.609-1.568,4.095-2.025c0.152-0.047,0.279-0.152,0.353-0.292
		c0.074-0.14,0.09-0.304,0.043-0.456l-0.888-2.885c-0.097-0.316-0.432-0.493-0.748-0.396c-1.413,0.435-2.75,1.032-3.993,1.768
		l-4.885-5.193l11.134-10.434c0.111-0.104,0.179-0.248,0.188-0.4l0.464-7.57c0.01-0.171-0.053-0.338-0.174-0.46
		c-0.121-0.121-0.289-0.185-0.46-0.174l-7.57,0.464c-0.152,0.009-0.296,0.077-0.4,0.188L37.981,29.011l-9.462-10.186
		c-0.093-0.101-0.218-0.166-0.354-0.185l-8.283-1.177c-0.186-0.026-0.374,0.036-0.507,0.169c-0.133,0.133-0.196,0.321-0.169,0.507
		l1.177,8.283c0.019,0.136,0.085,0.261,0.185,0.354l10.428,9.689L26.1,41.689c-1.243-0.736-2.58-1.334-3.992-1.768
		c-0.316-0.097-0.651,0.08-0.748,0.396l-0.888,2.885c-0.047,0.152-0.031,0.316,0.043,0.456c0.074,0.14,0.201,0.245,0.353,0.292
		c1.486,0.457,2.864,1.147,4.095,2.025c-0.03,0.027-0.059,0.054-0.087,0.082c-0.252,0.252-0.444,0.565-0.56,0.907
		c-0.342,0.114-0.652,0.306-0.911,0.565c-0.258,0.259-0.45,0.567-0.564,0.907c-0.34,0.115-0.648,0.306-0.907,0.564
		c-0.258,0.259-0.45,0.567-0.564,0.907c-0.34,0.115-0.648,0.306-0.907,0.565c-0.259,0.259-0.45,0.569-0.564,0.91
		c-0.342,0.116-0.655,0.309-0.907,0.56c-0.438,0.438-0.689,1.044-0.689,1.663c0.001,0.619,0.252,1.225,0.689,1.661
		c0.437,0.437,1.043,0.688,1.664,0.689c0.619-0.001,1.225-0.252,1.662-0.689c0.252-0.252,0.444-0.565,0.56-0.907
		c0.342-0.114,0.651-0.305,0.91-0.564c0.259-0.259,0.45-0.568,0.565-0.907c0.34-0.115,0.648-0.306,0.907-0.564
		c0.258-0.259,0.45-0.567,0.564-0.907c0.34-0.115,0.648-0.306,0.907-0.564c0.259-0.259,0.45-0.569,0.564-0.911
		c0.341-0.116,0.655-0.308,0.907-0.561c0.028-0.028,0.055-0.058,0.082-0.087c0.879,1.231,1.568,2.609,2.025,4.095
		c0.079,0.257,0.316,0.423,0.572,0.423c0.058,0,0.118-0.009,0.176-0.027l2.885-0.888c0.152-0.047,0.279-0.152,0.353-0.292
		s0.09-0.304,0.043-0.456c-0.435-1.413-1.032-2.75-1.768-3.992l5.441-5.099l5.42,5.099c-0.736,1.243-1.334,2.58-1.768,3.993
		c-0.047,0.152-0.031,0.316,0.043,0.456c0.074,0.14,0.201,0.245,0.353,0.292l2.885,0.888c0.059,0.018,0.118,0.027,0.176,0.027
		c0.256,0,0.493-0.165,0.572-0.423c0.457-1.486,1.147-2.864,2.025-4.095c0.027,0.03,0.054,0.059,0.082,0.087
		c0.253,0.253,0.566,0.445,0.907,0.561c0.114,0.342,0.306,0.652,0.564,0.911c0.258,0.258,0.567,0.45,0.907,0.564
		c0.115,0.34,0.306,0.648,0.564,0.907c0.258,0.258,0.567,0.45,0.907,0.564c0.115,0.34,0.306,0.648,0.565,0.907
		c0.259,0.259,0.569,0.45,0.91,0.564c0.116,0.342,0.309,0.655,0.56,0.907c0.437,0.437,1.043,0.688,1.664,0.689
		c0.619-0.001,1.225-0.252,1.661-0.689c0.437-0.437,0.688-1.043,0.689-1.662C57.698,52.986,57.446,52.38,57.008,51.942z
		 M21.537,26.044l-1.035-7.284l7.284,1.035l9.375,10.091l-5.348,5.706L21.537,26.044z M20.655,54.759
		c-0.305-0.001-0.603-0.124-0.817-0.339c-0.215-0.215-0.338-0.513-0.339-0.816c0-0.304,0.123-0.601,0.339-0.816
		c0.106-0.106,0.235-0.19,0.377-0.248l1.504,1.504c-0.058,0.142-0.142,0.271-0.248,0.376C21.255,54.635,20.958,54.759,20.655,54.759
		z M22.566,53.199l-1.507-1.507c0.057-0.139,0.141-0.266,0.249-0.375c0.109-0.109,0.236-0.194,0.375-0.251l1.508,1.508
		c-0.057,0.139-0.142,0.266-0.251,0.375C22.832,53.058,22.705,53.142,22.566,53.199z M24.038,51.728L22.53,50.22
		c0.057-0.139,0.142-0.266,0.25-0.374c0.109-0.109,0.235-0.193,0.374-0.25l1.509,1.509c-0.057,0.139-0.142,0.266-0.25,0.374
		C24.304,51.587,24.177,51.671,24.038,51.728z M25.509,50.258L24,48.749c0.057-0.139,0.142-0.266,0.25-0.374
		c0.109-0.109,0.236-0.193,0.376-0.25l1.507,1.507c-0.057,0.14-0.141,0.267-0.25,0.376C25.774,50.116,25.648,50.2,25.509,50.258z
		 M27.355,48.536c-0.106,0.106-0.235,0.19-0.376,0.248l-1.504-1.504c0.058-0.142,0.142-0.271,0.248-0.376
		c0.064-0.064,0.137-0.12,0.215-0.168c0.569,0.486,1.099,1.016,1.585,1.585C27.475,48.399,27.419,48.472,27.355,48.536z
		 M31.265,52.469c-1.555-4.438-5.038-7.922-9.476-9.476l0.536-1.743c2.502,0.865,4.735,2.278,6.56,4.099
		c0.004,0.004,0.007,0.009,0.011,0.013c0.004,0.004,0.009,0.007,0.013,0.011c1.821,1.825,3.234,4.058,4.099,6.56L31.265,52.469z
		 M30.159,44.945l3.415-3.415c0.234-0.234,0.234-0.613,0-0.846c-0.234-0.234-0.613-0.234-0.846,0l-3.415,3.415
		c-0.681-0.639-1.412-1.226-2.185-1.756l21.78-23.241l6.657-0.408l-0.408,6.657L31.915,47.131
		C31.385,46.357,30.798,45.627,30.159,44.945z M38.885,42.239l5.255-4.925l4.731,5.03c-0.773,0.53-1.503,1.117-2.185,1.755
		l-3.415-3.415c-0.234-0.234-0.613-0.234-0.846,0c-0.234,0.234-0.234,0.613,0,0.846l3.415,3.415
		c-0.638,0.681-1.225,1.411-1.756,2.185L38.885,42.239z M44.735,52.469l-1.743-0.536c0.865-2.502,2.278-4.735,4.099-6.56
		c0.004-0.004,0.009-0.007,0.013-0.011s0.007-0.009,0.011-0.013c1.825-1.821,4.058-3.234,6.56-4.099l0.536,1.743
		C49.773,44.548,46.289,48.031,44.735,52.469z M48.645,48.536c-0.064-0.064-0.12-0.137-0.167-0.215
		c0.486-0.569,1.016-1.099,1.585-1.585c0.078,0.047,0.15,0.103,0.215,0.167c0.106,0.106,0.19,0.235,0.248,0.376l-1.504,1.504
		C48.88,48.726,48.751,48.642,48.645,48.536z M50.117,50.007c-0.109-0.109-0.193-0.236-0.25-0.376l1.507-1.507
		c0.14,0.057,0.267,0.141,0.376,0.25c0.109,0.109,0.193,0.235,0.25,0.374l-1.509,1.509C50.352,50.2,50.225,50.116,50.117,50.007z
		 M51.587,51.478c-0.109-0.109-0.193-0.235-0.25-0.374l1.509-1.509c0.139,0.057,0.265,0.142,0.374,0.25
		c0.109,0.109,0.193,0.235,0.25,0.374l-1.509,1.509C51.823,51.671,51.696,51.587,51.587,51.478z M53.059,52.95
		c-0.109-0.109-0.194-0.236-0.251-0.375l1.508-1.508c0.139,0.057,0.266,0.142,0.375,0.251c0.108,0.108,0.193,0.235,0.249,0.375
		l-1.507,1.507C53.294,53.142,53.167,53.058,53.059,52.95z M56.162,54.42c-0.215,0.215-0.513,0.338-0.815,0.339
		c-0.305-0.001-0.603-0.124-0.817-0.339c-0.106-0.106-0.19-0.235-0.248-0.376l1.504-1.504c0.142,0.058,0.271,0.142,0.376,0.248
		c0.215,0.215,0.339,0.513,0.339,0.815C56.5,53.908,56.377,54.206,56.162,54.42z"/>
</g>
</svg>
