<?xml version="1.0" encoding="utf-8"?>
<!-- Generator: Adobe Illustrator 17.0.0, SVG Export Plug-In . SVG Version: 6.00 Build 0)  -->
<!DOCTYPE svg PUBLIC "-//W3C//DTD SVG 1.1//EN" "http://www.w3.org/Graphics/SVG/1.1/DTD/svg11.dtd">
<svg version="1.1" id="Layer_1" xmlns="http://www.w3.org/2000/svg" xmlns:xlink="http://www.w3.org/1999/xlink" x="0px" y="0px"
	 width="468px" height="356px" viewBox="0 0 468 356" enable-background="new 0 0 468 356" xml:space="preserve">
<rect x="-9" y="-18" display="none" fill="#00C697" width="587" height="476"/>
<rect display="none" width="468" height="356"/>
<g>
	<g>
		<g>
			<rect x="0" y="0" fill="#FFFFFF" width="31.193" height="337.925"/>
			<rect x="46.79" y="0" fill="#FFFFFF" width="20.795" height="249.545"/>
			<rect x="103.977" y="0" fill="#FFFFFF" width="20.795" height="249.545"/>
			<rect x="140.369" y="0" fill="#FFFFFF" width="31.193" height="249.545"/>
			<rect x="77.983" y="0" fill="#FFFFFF" width="15.597" height="249.545"/>
			<rect x="181.96" y="0" fill="#FFFFFF" width="15.597" height="249.545"/>
			<polygon fill="#FFFFFF" points="287.668,0 254.744,0 254.744,249.545 287.668,249.545 297.203,249.545 317.13,249.545 317.13,0 
				297.203,0 			"/>
			<rect x="207.954" y="0" fill="#FFFFFF" width="25.994" height="249.545"/>
			<rect x="400.311" y="0" fill="#FFFFFF" width="31.193" height="249.545"/>
			<polygon fill="#FFFFFF" points="365.65,0 337.925,0 337.925,249.545 365.65,249.545 370.849,249.545 384.715,249.545 384.715,0 
				370.849,0 			"/>
			<rect x="441.902" y="0" fill="#FFFFFF" width="25.994" height="337.925"/>
		</g>
		<g>
			<path fill="#FFFFFF" d="M81.816,306.87l-8.74,29.637h-7.033L60.66,316.42c-0.213-0.771-0.348-1.64-0.405-2.604h-0.116
				c-0.039,0.656-0.213,1.505-0.521,2.547l-5.846,20.144h-6.888l-8.712-29.637h6.946l5.383,21.359
				c0.173,0.637,0.29,1.486,0.347,2.547h0.203c0.058-0.811,0.212-1.679,0.463-2.605l5.991-21.301h6.309l5.326,21.446
				c0.173,0.675,0.299,1.524,0.376,2.547h0.203c0.039-0.714,0.183-1.563,0.434-2.547l5.268-21.446H81.816z"/>
			<path fill="#FFFFFF" d="M111.649,336.506h-6.715v-16.208c0-5.865-1.958-8.798-5.875-8.798c-1.968,0-3.628,0.849-4.978,2.547
				c-1.351,1.698-2.026,3.869-2.026,6.512v15.947h-6.744V292.63h6.744v19.16h0.116c2.238-3.743,5.441-5.615,9.609-5.615
				c6.579,0,9.869,4.023,9.869,12.069V336.506z"/>
			<path fill="#FFFFFF" d="M141.078,336.506h-6.512v-4.631h-0.116c-2.045,3.55-5.046,5.326-9.001,5.326
				c-2.914,0-5.195-0.791-6.845-2.374c-1.649-1.582-2.475-3.676-2.475-6.28c0-5.595,3.222-8.856,9.667-9.782l8.798-1.245
				c0-4.226-2.007-6.338-6.02-6.338c-3.531,0-6.714,1.215-9.551,3.646v-5.875c3.125-1.853,6.733-2.778,10.824-2.778
				c7.486,0,11.229,3.686,11.229,11.056V336.506z M134.595,321.949l-6.223,0.868c-1.93,0.251-3.382,0.719-4.356,1.404
				s-1.461,1.886-1.461,3.603c0,1.254,0.449,2.282,1.346,3.083c0.897,0.801,2.099,1.201,3.604,1.201
				c2.045,0,3.738-0.718,5.079-2.156c1.341-1.438,2.012-3.246,2.012-5.427V321.949z"/>
			<path fill="#FFFFFF" d="M163.415,336.188c-1.313,0.656-3.039,0.984-5.181,0.984c-5.75,0-8.625-2.759-8.625-8.277v-16.757h-4.949
				v-5.268h4.949v-6.859l6.715-1.91v8.769h7.091v5.268h-7.091v14.818c0,1.756,0.318,3.01,0.955,3.762s1.698,1.129,3.184,1.129
				c1.138,0,2.122-0.328,2.952-0.984V336.188z"/>
			<path fill="#FFFFFF" d="M188.415,335.146c-2.373,1.37-5.18,2.055-8.422,2.055c-4.399,0-7.95-1.375-10.651-4.125
				s-4.052-6.314-4.052-10.694c0-4.881,1.452-8.803,4.356-11.765c2.904-2.961,6.787-4.442,11.649-4.442
				c2.701,0,5.084,0.473,7.149,1.418v6.251c-2.065-1.543-4.265-2.315-6.599-2.315c-2.836,0-5.162,0.96-6.975,2.88
				c-1.814,1.92-2.721,4.433-2.721,7.54c0,3.068,0.854,5.489,2.562,7.264c1.708,1.775,3.999,2.663,6.874,2.663
				c2.412,0,4.688-0.858,6.83-2.576V335.146z"/>
			<path fill="#FFFFFF" d="M216.338,336.506h-6.512v-4.631h-0.116c-2.045,3.55-5.046,5.326-9.001,5.326
				c-2.914,0-5.195-0.791-6.845-2.374c-1.649-1.582-2.475-3.676-2.475-6.28c0-5.595,3.222-8.856,9.667-9.782l8.798-1.245
				c0-4.226-2.007-6.338-6.02-6.338c-3.531,0-6.714,1.215-9.551,3.646v-5.875c3.125-1.853,6.733-2.778,10.824-2.778
				c7.486,0,11.229,3.686,11.229,11.056V336.506z M209.855,321.949l-6.223,0.868c-1.93,0.251-3.382,0.719-4.356,1.404
				s-1.461,1.886-1.461,3.603c0,1.254,0.449,2.282,1.346,3.083c0.897,0.801,2.099,1.201,3.604,1.201
				c2.045,0,3.738-0.718,5.079-2.156c1.341-1.438,2.012-3.246,2.012-5.427V321.949z"/>
			<path fill="#FFFFFF" d="M249.442,336.506h-6.714v-16.7c0-5.537-1.958-8.306-5.875-8.306c-2.045,0-3.734,0.767-5.065,2.301
				c-1.332,1.534-1.997,3.469-1.997,5.803v16.902h-6.744V306.87h6.744v4.92h0.116c2.219-3.743,5.422-5.615,9.609-5.615
				c3.222,0,5.682,1.047,7.38,3.14c1.698,2.094,2.547,5.118,2.547,9.073V336.506z"/>
			<path fill="#FFFFFF" d="M259.537,300.647c-1.1,0-2.041-0.357-2.822-1.071c-0.781-0.713-1.172-1.621-1.172-2.72
				c0-1.1,0.391-2.016,1.172-2.75c0.781-0.733,1.722-1.1,2.822-1.1c1.138,0,2.103,0.367,2.895,1.1
				c0.791,0.733,1.187,1.649,1.187,2.75c0,1.042-0.396,1.935-1.187,2.677C261.64,300.276,260.675,300.647,259.537,300.647z
				 M262.866,336.506h-6.715V306.87h6.715V336.506z"/>
			<path fill="#FFFFFF" d="M276.983,332.223h-0.116v4.283h-6.715V292.63h6.715v19.449h0.116c2.296-3.936,5.653-5.904,10.072-5.904
				c3.743,0,6.671,1.327,8.784,3.979s3.169,6.208,3.169,10.665c0,4.959-1.187,8.929-3.56,11.91s-5.615,4.472-9.725,4.472
				C281.864,337.201,278.951,335.542,276.983,332.223z M276.81,320.443v3.676c0,2.161,0.689,3.994,2.069,5.499
				c1.379,1.505,3.13,2.257,5.253,2.257c2.489,0,4.443-0.969,5.861-2.909c1.418-1.939,2.127-4.645,2.127-8.118
				c0-2.913-0.661-5.195-1.983-6.845c-1.322-1.649-3.111-2.475-5.369-2.475c-2.393,0-4.317,0.85-5.774,2.547
				C277.538,315.774,276.81,317.896,276.81,320.443z"/>
			<path fill="#FFFFFF" d="M330.23,336.506h-6.714v-4.688H323.4c-1.949,3.589-4.978,5.383-9.088,5.383
				c-7.004,0-10.506-4.206-10.506-12.619V306.87h6.714v17.018c0,5.325,2.055,7.988,6.165,7.988c1.987,0,3.623-0.733,4.906-2.199
				s1.925-3.386,1.925-5.76V306.87h6.714V336.506z"/>
			<path fill="#FFFFFF" d="M363.161,306.87l-13.372,34.383c-2.778,6.136-6.676,9.204-11.692,9.204c-1.409,0-2.586-0.126-3.531-0.376
				v-5.586c1.061,0.348,2.026,0.521,2.894,0.521c2.508,0,4.38-1.235,5.615-3.705l1.997-4.862l-11.779-29.579h7.438l7.062,21.533
				c0.077,0.27,0.251,0.984,0.521,2.142h0.145c0.096-0.444,0.27-1.138,0.521-2.084l7.409-21.591H363.161z"/>
			<path fill="#FFFFFF" d="M383.154,298.101c-0.907-0.521-1.939-0.782-3.097-0.782c-3.261,0-4.891,1.843-4.891,5.528v4.023h6.888
				v5.268h-6.859v24.369h-6.714v-24.369h-5.065v-5.268h5.065v-4.804c0-3.126,1.022-5.59,3.068-7.395
				c2.045-1.804,4.602-2.706,7.669-2.706c1.659,0,2.971,0.184,3.936,0.55V298.101z"/>
			<path fill="#FFFFFF" d="M398.487,337.201c-4.573,0-8.225-1.384-10.955-4.153c-2.73-2.769-4.095-6.439-4.095-11.013
				c0-4.978,1.423-8.866,4.269-11.664c2.846-2.797,6.681-4.196,11.504-4.196c4.631,0,8.239,1.36,10.824,4.081
				c2.585,2.721,3.878,6.493,3.878,11.316c0,4.728-1.394,8.514-4.182,11.36C406.943,335.778,403.195,337.201,398.487,337.201z
				 M398.806,311.529c-2.624,0-4.698,0.917-6.222,2.75c-1.525,1.833-2.287,4.361-2.287,7.583c0,3.106,0.771,5.552,2.315,7.337
				c1.543,1.785,3.608,2.677,6.193,2.677c2.644,0,4.674-0.877,6.092-2.634c1.418-1.755,2.127-4.254,2.127-7.496
				c0-3.261-0.709-5.779-2.127-7.554C403.48,312.417,401.449,311.529,398.806,311.529z"/>
			<path fill="#FFFFFF" d="M436.453,313.266c-0.81-0.637-1.978-0.955-3.502-0.955c-1.987,0-3.646,0.897-4.978,2.691
				c-1.331,1.794-1.997,4.235-1.997,7.322v14.182h-6.715V306.87h6.715v6.107h0.116c0.656-2.084,1.664-3.709,3.024-4.877
				c1.36-1.167,2.879-1.751,4.558-1.751c1.216,0,2.142,0.184,2.778,0.55V313.266z"/>
		</g>
	</g>
</g>
<g>
</g>
<g>
</g>
<g>
</g>
<g>
</g>
<g>
</g>
<g>
</g>
<g>
</g>
<g>
</g>
<g>
</g>
<g>
</g>
<g>
</g>
<g>
</g>
<g>
</g>
<g>
</g>
<g>
</g>
</svg>
