<?xml version="1.0" encoding="utf-8"?>
<!-- Generator: Adobe Illustrator 17.0.0, SVG Export Plug-In . SVG Version: 6.00 Build 0)  -->
<!DOCTYPE svg PUBLIC "-//W3C//DTD SVG 1.1//EN" "http://www.w3.org/Graphics/SVG/1.1/DTD/svg11.dtd">
<svg version="1.1" id="Layer_1" xmlns="http://www.w3.org/2000/svg" xmlns:xlink="http://www.w3.org/1999/xlink" x="0px" y="0px"
	 width="73.659px" height="69.112px" viewBox="0 0 73.659 69.112" enable-background="new 0 0 73.659 69.112" xml:space="preserve">
<linearGradient id="SVGID_1_" gradientUnits="userSpaceOnUse" x1="-181.329" y1="217.339" x2="-181.329" y2="280.761" gradientTransform="matrix(1 0 0 -1 219.04 284.452)">
	<stop  offset="0" style="stop-color:#CF8140"/>
	<stop  offset="1" style="stop-color:#FFE055"/>
</linearGradient>
<circle fill="url(#SVGID_1_)" cx="37.711" cy="35.402" r="31.711"/>
<g opacity="0.7">
	<g>
		<path d="M39.087,15.97c9.28,0.465,16.64,7.69,17.557,16.654l-4.064-3.767c-0.526-0.485-1.334-0.458-1.82,0.067
			c-0.472,0.512-0.452,1.301,0.034,1.786c0.013,0.013,0.02,0.02,0.034,0.034l6.234,5.789c0.512,0.472,1.294,0.458,1.786-0.034
			l0.067-0.067c0.013-0.013,0.02-0.02,0.034-0.034l0.007-0.007l0,0l5.722-6.167c0.485-0.526,0.452-1.341-0.067-1.82
			c-0.526-0.485-1.334-0.458-1.82,0.067l-3.585,3.869c-0.445-4.448-2.298-8.62-5.358-12.003c-3.788-4.192-8.991-6.659-14.632-6.935
			c-7.757-0.384-15.09,3.498-19.134,10.13c-0.317,0.519-0.222,1.166,0.189,1.577c0.074,0.074,0.148,0.135,0.243,0.189
			c0.607,0.364,1.402,0.175,1.766-0.431C25.837,19.043,32.274,15.626,39.087,15.97z"/>
		<path d="M56.065,46.211c0.364-0.607,0.175-1.402-0.431-1.766s-1.402-0.175-1.766,0.431c-3.552,5.83-9.995,9.24-16.809,8.896
			c-4.785-0.243-9.058-2.278-12.199-5.419c-2.999-2.999-4.974-7.009-5.378-11.43l4.32,3.606c0.546,0.452,1.355,0.384,1.813-0.168
			s0.384-1.355-0.168-1.813l-6.531-5.452c-0.546-0.452-1.355-0.384-1.813,0.168l-5.452,6.531c-0.431,0.512-0.391,1.267,0.074,1.732
			c0.027,0.027,0.054,0.054,0.088,0.074c0.546,0.452,1.355,0.384,1.813-0.168l3.323-3.97c0.465,4.428,2.312,8.58,5.351,11.943
			c0.243,0.27,0.492,0.532,0.741,0.782c3.714,3.714,8.607,5.884,13.89,6.153C44.688,56.725,52.014,52.849,56.065,46.211z"/>
	</g>
</g>
</svg>
