<?xml version="1.0" encoding="utf-8"?>
<!-- Generator: Adobe Illustrator 17.0.0, SVG Export Plug-In . SVG Version: 6.00 Build 0)  -->
<!DOCTYPE svg PUBLIC "-//W3C//DTD SVG 1.1//EN" "http://www.w3.org/Graphics/SVG/1.1/DTD/svg11.dtd">
<svg version="1.1" id="Layer_1" xmlns="http://www.w3.org/2000/svg" xmlns:xlink="http://www.w3.org/1999/xlink" x="0px" y="0px"
	 width="73.659px" height="69.112px" viewBox="0 0 73.659 69.112" enable-background="new 0 0 73.659 69.112" xml:space="preserve">
<linearGradient id="SVGID_1_" gradientUnits="userSpaceOnUse" x1="37.7107" y1="67.1124" x2="37.7107" y2="3.691">
	<stop  offset="0" style="stop-color:#CF8140"/>
	<stop  offset="1" style="stop-color:#FFE055"/>
</linearGradient>
<circle fill="url(#SVGID_1_)" cx="37.711" cy="35.402" r="31.711"/>
<g opacity="0.7">
	<g>
		<path d="M56.445,35.839c-0.212,5.041-2.344,9.738-6.004,13.226c-7.553,7.199-19.342,6.939-26.277-0.578
			c-3.357-3.639-5.066-8.382-4.884-13.321l-4.508,4.297c-0.574,0.547-1.466,0.528-1.994-0.044c-0.527-0.571-0.489-1.478,0.085-2.026
			l7.233-6.895c0.275-0.262,0.64-0.405,1.014-0.398c0.212,0.005,0.416,0.058,0.6,0.153c0.141,0.073,0.269,0.17,0.379,0.289
			l7.012,7.6c0.527,0.571,0.489,1.479-0.085,2.026c-0.574,0.547-1.468,0.526-1.994-0.044l-4.908-5.32
			c-0.266,4.334,1.19,8.515,4.127,11.701c5.884,6.377,15.882,6.596,22.289,0.489c6.407-6.106,6.834-16.263,0.951-22.64
			c-4.26-4.614-10.855-6.163-16.804-3.939c-0.736,0.276-1.54-0.103-1.797-0.845c-0.256-0.742,0.134-1.566,0.87-1.841
			c4.973-1.859,10.328-1.483,14.814,0.833c1.84,0.95,3.534,2.227,4.994,3.81C54.922,26.017,56.656,30.798,56.445,35.839z"/>
	</g>
</g>
</svg>
